<?xml version="1.0" encoding="UTF-8"?>
<svg width="32px" height="31px" viewBox="0 0 32 31" version="1.1" xmlns="http://www.w3.org/2000/svg" xmlns:xlink="http://www.w3.org/1999/xlink">
    <title>8C58265C-054A-4670-862A-1362F343BF86</title>
    <g id="Page-1" stroke="none" stroke-width="1" fill="none" fill-rule="evenodd">
        <g id="Content-page---2" transform="translate(-865.000000, -794.000000)" fill="#00B96E" fill-rule="nonzero">
            <g id="C2A-1" transform="translate(835.000000, 765.000000)">
                <g id="Icon/List" transform="translate(30.000000, 29.000000)">
                    <path d="M7.99382022,23.3680328 C8.33764045,23.3680328 8.63848315,23.242623 8.89634831,22.9918033 C9.15421348,22.7409836 9.28314607,22.4483607 9.28314607,22.1139344 C9.28314607,21.7795082 9.15421348,21.4868852 8.89634831,21.2360656 C8.63848315,20.9852459 8.33764045,20.8598361 7.99382022,20.8598361 C7.65,20.8598361 7.3491573,20.9852459 7.09129213,21.2360656 C6.83342697,21.4868852 6.70449438,21.7795082 6.70449438,22.1139344 C6.70449438,22.4483607 6.83342697,22.7409836 7.09129213,22.9918033 C7.3491573,23.242623 7.65,23.3680328 7.99382022,23.3680328 Z M7.99382022,16.5540984 C8.33764045,16.5540984 8.63848315,16.4286885 8.89634831,16.1778689 C9.15421348,15.9270492 9.28314607,15.6344262 9.28314607,15.3 C9.28314607,14.9655738 9.15421348,14.6729508 8.89634831,14.4221311 C8.63848315,14.1713115 8.33764045,14.0459016 7.99382022,14.0459016 C7.65,14.0459016 7.3491573,14.1713115 7.09129213,14.4221311 C6.83342697,14.6729508 6.70449438,14.9655738 6.70449438,15.3 C6.70449438,15.6344262 6.83342697,15.9270492 7.09129213,16.1778689 C7.3491573,16.4286885 7.65,16.5540984 7.99382022,16.5540984 Z M7.99382022,9.74016393 C8.33764045,9.74016393 8.63848315,9.6147541 8.89634831,9.36393443 C9.15421348,9.11311475 9.28314607,8.8204918 9.28314607,8.48606557 C9.28314607,8.15163934 9.15421348,7.85901639 8.89634831,7.60819672 C8.63848315,7.35737705 8.33764045,7.23196721 7.99382022,7.23196721 C7.65,7.23196721 7.3491573,7.35737705 7.09129213,7.60819672 C6.83342697,7.85901639 6.70449438,8.15163934 6.70449438,8.48606557 C6.70449438,8.8204918 6.83342697,9.11311475 7.09129213,9.36393443 C7.3491573,9.6147541 7.65,9.74016393 7.99382022,9.74016393 Z M13.6668539,23.3680328 L24.1533708,23.3680328 L24.1533708,20.8598361 L13.6668539,20.8598361 L13.6668539,23.3680328 Z M13.6668539,16.5540984 L24.1533708,16.5540984 L24.1533708,14.0459016 L13.6668539,14.0459016 L13.6668539,16.5540984 Z M13.6668539,9.74016393 L24.1533708,9.74016393 L24.1533708,7.23196721 L13.6668539,7.23196721 L13.6668539,9.74016393 Z M2.92247191,30.6 C2.1488764,30.6 1.46839888,30.3143443 0.881039326,29.7430328 C0.293679775,29.1717213 0,28.5098361 0,27.757377 L0,2.84262295 C0,2.06229508 0.293679775,1.39344262 0.881039326,0.836065574 C1.46839888,0.278688525 2.1488764,0 2.92247191,0 L28.5370787,0 C29.3393258,0 30.0269663,0.278688525 30.6,0.836065574 C31.1730337,1.39344262 31.4595506,2.06229508 31.4595506,2.84262295 L31.4595506,27.757377 C31.4595506,28.5098361 31.1730337,29.1717213 30.6,29.7430328 C30.0269663,30.3143443 29.3393258,30.6 28.5370787,30.6 L2.92247191,30.6 Z M2.92247191,27.757377 L28.5370787,27.757377 L28.5370787,2.84262295 L2.92247191,2.84262295 L2.92247191,27.757377 Z M2.92247191,2.84262295 L2.92247191,27.757377 L2.92247191,2.84262295 Z" id="Shape"></path>
                </g>
            </g>
        </g>
    </g>
</svg>