<?xml version="1.0" encoding="UTF-8"?><svg version="1.1" width="200px" height="48px" viewBox="0 0 200.0 48.0" xmlns="http://www.w3.org/2000/svg" xmlns:xlink="http://www.w3.org/1999/xlink"><defs><clipPath id="i0"><path d="M420,0 L420,4619 L0,4619 L0,0 L420,0 Z"></path></clipPath><clipPath id="i1"><path d="M8.06050742,0 L8.06050742,1.8230448 L2.24695003,1.8230448 L2.24695003,5.8413131 L6.77996039,5.8413131 L6.77996039,7.66561952 L2.24695003,7.66561952 L2.24695003,13.6242635 L0,13.6242635 L0,0 L8.06050742,0 Z"></path></clipPath><clipPath id="i2"><path d="M2.22676406,0 L2.22676406,6.01794027 C2.22676406,6.98560489 2.46899562,7.72743903 2.95472036,8.24344272 C3.44170672,8.7594464 4.10532026,9.01807905 4.94556098,9.01807905 C5.7858017,9.01807905 6.45320011,8.7594464 6.94649458,8.24344272 C7.43852743,7.72743903 7.68454386,6.98560489 7.68454386,6.01794027 L7.68454386,0 L9.93149389,0 L9.93149389,10.8020135 L7.68454386,10.8020135 L7.68454386,9.52777462 C7.33002788,9.97186581 6.86701235,10.3213353 6.29549727,10.5761831 C5.72398219,10.8310309 5.11588004,10.9584548 4.47245247,10.9584548 C3.6183339,10.9584548 2.85379055,10.7818276 2.17756078,10.4285732 C1.50006939,10.0765805 0.96766461,9.55300708 0.580346442,8.86037622 C0.193028273,8.16774535 0,7.3312895 0,6.35100867 L0,0 L2.22676406,0 Z"></path></clipPath><clipPath id="i3"><path d="M3.54768303,0 L3.54768303,2.68599473 L6.18825934,2.68599473 L6.18825934,4.50903953 L3.54768303,4.50903953 L3.54768303,10.4878695 C3.54768303,10.8928504 3.64230473,11.1842852 3.83280976,11.3596508 C4.02331479,11.536278 4.34881344,11.6245915 4.80804411,11.6245915 L6.18825934,11.6245915 L6.18825934,13.4867467 L4.41441782,13.4867467 C3.40259642,13.4867467 2.62796008,13.2520848 2.08924719,12.7814996 C1.5505343,12.3109143 1.28054704,11.5463709 1.28054704,10.4878695 L1.28054704,4.50903953 L0,4.50903953 L0,2.68599473 L1.28054704,2.68599473 L1.28054704,0 L3.54768303,0 Z"></path></clipPath><clipPath id="i4"><path d="M2.22676406,0 L2.22676406,6.01794027 C2.22676406,6.98560489 2.46899562,7.72743903 2.95472036,8.24344272 C3.44170672,8.7594464 4.10532026,9.01807905 4.94556098,9.01807905 C5.7858017,9.01807905 6.45320011,8.7594464 6.94649458,8.24344272 C7.43852743,7.72743903 7.68454386,6.98560489 7.68454386,6.01794027 L7.68454386,0 L9.93149389,0 L9.93149389,10.8020135 L7.68454386,10.8020135 L7.68454386,9.52777462 C7.33002788,9.97186581 6.86701235,10.3213353 6.29549727,10.5761831 C5.72398219,10.8310309 5.11588004,10.9584548 4.47245247,10.9584548 C3.6183339,10.9584548 2.85379055,10.7818276 2.17756078,10.4285732 C1.50006939,10.0765805 0.96766461,9.55300708 0.580346442,8.86037622 C0.193028273,8.16774535 0,7.3312895 0,6.35100867 L0,0 L2.22676406,0 Z"></path></clipPath><clipPath id="i5"><path d="M5.4968901,0 L5.4968901,2.31255441 L4.92537502,2.31255441 C4.046024,2.31255441 3.37862559,2.53586163 2.92570304,2.97995282 C2.47278049,3.42404401 2.2456884,4.19489547 2.2456884,5.29250722 L2.2456884,10.9773791 L0,10.9773791 L0,0.176627178 L2.2456884,0.176627178 L2.2456884,1.74482419 C2.57371031,1.19601832 3.01149338,0.768328224 3.55651439,0.460492285 C4.10153539,0.153917969 4.74874784,0 5.4968901,0 Z"></path></clipPath><clipPath id="i6"><path d="M5.41866949,0 C6.44436875,0 7.35652196,0.222045595 8.158914,0.666136785 C8.96004441,1.11022798 9.58454765,1.73473121 10.0299005,2.53838487 C10.4777765,3.34203853 10.7010837,4.26680797 10.7010837,5.31143156 C10.7010837,5.71641245 10.6745897,6.08354466 10.6216015,6.40904331 L2.32517063,6.40904331 C2.39077501,7.27199324 2.7124888,7.9646241 3.29157362,8.4869359 C3.86939682,9.01050932 4.57842878,9.27166522 5.41866949,9.27166522 C6.62856566,9.27166522 7.48142261,8.76827776 7.98102519,7.76276447 L10.4046024,7.76276447 C10.0765805,8.75566153 9.48235621,9.56940817 8.62192953,10.2027428 C7.76150284,10.8360774 6.69290842,11.1540063 5.41866949,11.1540063 C4.38161563,11.1540063 3.4517997,10.9218677 2.63048333,10.4575906 C1.80916695,9.99457502 1.16573937,9.33979284 0.698938975,8.49702888 C0.233400199,7.65426492 0,6.67776895 0,5.56627935 C0,4.45605137 0.227092086,3.4795554 0.680014635,2.63552982 C1.13293718,1.79276586 1.77005665,1.14303017 2.59137302,0.685061126 C3.4126894,0.228353709 4.35512156,0 5.41866949,0 Z M5.32026292,1.88107944 C4.54562658,1.88107944 3.88201305,2.12583425 3.33068393,2.61660548 C2.77809318,3.10611509 2.45007128,3.76972862 2.3453566,4.60618447 L8.35572714,4.60618447 C8.34184929,3.78234485 8.04662957,3.12251618 7.46880638,2.62543684 C6.89098318,2.12961912 6.17438149,1.88107944 5.32026292,1.88107944 Z"></path></clipPath><clipPath id="i7"><path d="M2.42357721,0 L7.23288293,10.683421 L12.0207411,0 L14.4253939,0 L14.4253939,13.6242635 L12.1784439,13.6242635 L12.1784439,4.29330205 L8.00121116,13.6242635 L6.44436875,13.6242635 L2.24695003,4.29330205 L2.24695003,13.6242635 L0,13.6242635 L0,0 L2.42357721,0 Z"></path></clipPath><clipPath id="i8"><path d="M5.53852365,0 C6.57557751,0 7.51548642,0.229615331 8.35572714,0.686322748 C9.19596785,1.14429179 9.86084302,1.79781235 10.3465678,2.64688442 C10.8322925,3.4959565 11.0757857,4.46992922 11.0757857,5.56754097 C11.0757857,6.66515272 10.8259844,7.63912544 10.3263818,8.48819752 C9.8267792,9.33853122 9.14676457,9.99457502 8.28759951,10.4588522 C7.42591121,10.9231293 6.47717094,11.1540063 5.43885546,11.1540063 C4.41441782,11.1540063 3.48838676,10.9231293 2.66076227,10.4588522 C1.83313778,9.99457502 1.18214047,9.34105446 0.71029358,8.4982905 C0.237185067,7.65552654 0,6.67903057 0,5.56754097 C0,4.46992922 0.243493181,3.4959565 0.72921792,2.64688442 C1.21494266,1.79781235 1.8785562,1.14429179 2.72005854,0.686322748 C3.56029926,0.229615331 4.50020817,0 5.53852365,0 Z M5.49815172,1.94037571 C4.92032853,1.94037571 4.3854005,2.07789259 3.89210603,2.35292633 C3.40007317,2.62669846 3.00897014,3.03546421 2.72005854,3.57796197 C2.43114694,4.12045974 2.28606033,4.78407328 2.28606033,5.56754097 C2.28606033,6.7307571 2.58506491,7.62903246 3.18307407,8.26362868 C3.78108323,8.89696327 4.53301036,9.21363057 5.43885546,9.21363057 C6.01794027,9.21363057 6.55917641,9.07737532 7.06508712,8.80234157 C7.57099782,8.52730782 7.98228682,8.11601882 8.29643087,7.56721295 C8.61183654,7.01840708 8.76953938,6.35227029 8.76953938,5.56754097 C8.76953938,4.78407328 8.61940628,4.12045974 8.31661683,3.57796197 C8.01382738,3.03546421 7.61389299,2.62669846 7.1142904,2.35292633 C6.61468781,2.07789259 6.07597492,1.94037571 5.49815172,1.94037571 Z"></path></clipPath><clipPath id="i9"><path d="M2.2456884,0 L2.2456884,5.31269319 C2.62669846,4.78911977 3.14901026,4.36142967 3.8126238,4.02836128 C4.47623734,3.69529289 5.21428662,3.52875869 6.02929488,3.52875869 C6.98812813,3.52875869 7.85612455,3.7571124 8.63076088,4.21508144 C9.40665884,4.67178885 10.0172842,5.32152454 10.4638987,6.16555013 C10.9105131,7.00831409 11.1338203,7.97219384 11.1338203,9.05592773 C11.1338203,10.1409233 10.9105131,11.1123727 10.4638987,11.9677529 C10.0172842,12.8231331 9.40287398,13.4905315 8.6206679,13.9674249 C7.83972345,14.4443183 6.9755119,14.682765 6.02929488,14.682765 C5.18905416,14.682765 4.44343515,14.518754 3.79243783,14.1932554 C3.14270214,13.8664951 2.62669846,13.4476363 2.2456884,12.9379408 L2.2456884,14.5061378 L0,14.5061378 L0,0 L2.2456884,0 Z M5.53726203,5.4691344 C4.97205506,5.4691344 4.43712703,5.61295939 3.93121633,5.90060936 C3.42530563,6.18825934 3.0178015,6.60585645 2.70870394,7.15466233 C2.39960637,7.7034682 2.2456884,8.35068065 2.2456884,9.09629966 C2.2456884,9.84065705 2.39960637,10.4903927 2.70870394,11.0467684 C3.0178015,11.6018823 3.42530563,12.0232643 3.93121633,12.3109143 C4.43712703,12.5985643 4.97205506,12.7423893 5.53726203,12.7423893 C6.11508522,12.7423893 6.65758298,12.5947794 7.16349369,12.3008213 C7.66814277,12.0068632 8.0756469,11.5791731 8.38474446,11.0164894 C8.6925804,10.4550673 8.84775999,9.80154675 8.84775999,9.05592773 C8.84775999,8.31157034 8.6925804,7.66814277 8.38474446,7.125645 C8.0756469,6.58314724 7.66814277,6.17185824 7.16349369,5.89051638 C6.65758298,5.60917452 6.11508522,5.4691344 5.53726203,5.4691344 Z"></path></clipPath><clipPath id="i10"><path d="M200,0 L200,47.6401347 L0,47.6401347 L0,0 L200,0 Z"></path></clipPath><clipPath id="i11"><path d="M2.54216974,4.29330205 L2.54216974,15.0953156 L0.295219712,15.0953156 L0.295219712,4.29330205 L2.54216974,4.29330205 Z M1.43824988,0 C1.83187616,0 2.1674678,0.137516874 2.44376317,0.412550623 C2.71879692,0.686322748 2.85757541,1.02569925 2.85757541,1.43194176 C2.85757541,1.83692265 2.71879692,2.17629916 2.44376317,2.45007128 C2.1674678,2.72510503 1.83187616,2.8626219 1.43824988,2.8626219 C1.03074575,2.8626219 0.688845994,2.72510503 0.413812245,2.45007128 C0.137516874,2.17629916 0,1.83692265 0,1.43194176 C0,1.02569925 0.137516874,0.686322748 0.413812245,0.412550623 C0.688845994,0.137516874 1.03074575,0 1.43824988,0 Z"></path></clipPath><clipPath id="i12"><path d="M2.24695003,0 L2.24695003,14.5061378 L0,14.5061378 L0,0 L2.24695003,0 Z"></path></clipPath><clipPath id="i13"><path d="M2.54216974,4.29330205 L2.54216974,15.0953156 L0.295219712,15.0953156 L0.295219712,4.29330205 L2.54216974,4.29330205 Z M1.43824988,0 C1.83187616,0 2.1674678,0.137516874 2.44376317,0.412550623 C2.71879692,0.686322748 2.85757541,1.02569925 2.85757541,1.43194176 C2.85757541,1.83692265 2.71879692,2.17629916 2.44376317,2.45007128 C2.1674678,2.72510503 1.83187616,2.8626219 1.43824988,2.8626219 C1.03074575,2.8626219 0.688845994,2.72510503 0.413812245,2.45007128 C0.137516874,2.17629916 0,1.83692265 0,1.43194176 C0,1.02569925 0.137516874,0.686322748 0.413812245,0.412550623 C0.688845994,0.137516874 1.03074575,0 1.43824988,0 Z"></path></clipPath><clipPath id="i14"><path d="M3.54768303,0 L3.54768303,2.68599473 L6.18825934,2.68599473 L6.18825934,4.50903953 L3.54768303,4.50903953 L3.54768303,10.4878695 C3.54768303,10.8928504 3.64230473,11.1842852 3.83280976,11.3596508 C4.02331479,11.536278 4.34881344,11.6245915 4.80804411,11.6245915 L6.18825934,11.6245915 L6.18825934,13.4867467 L4.41441782,13.4867467 C3.40259642,13.4867467 2.62796008,13.2520848 2.08924719,12.7814996 C1.5505343,12.3109143 1.28054704,11.5463709 1.28054704,10.4878695 L1.28054704,4.50903953 L0,4.50903953 L0,2.68599473 L1.28054704,2.68599473 L1.28054704,0 L3.54768303,0 Z"></path></clipPath><clipPath id="i15"><path d="M2.50305944,0 L5.55744799,8.23334973 L8.73042908,0 L11.0555997,0 L4.39549348,15.8787833 L2.06906123,15.8787833 L4.27690095,10.6253864 L0,0 L2.50305944,0 Z"></path></clipPath><clipPath id="i16"><path d="M32.0575174,0 C32.2379294,0.296481334 32.4385274,0.581608064 32.6694044,0.849072077 C33.7745859,2.12961912 35.3150272,2.90551708 37.0030784,3.03294097 C37.1683509,3.0455572 37.3311003,3.05186531 37.4938496,3.05186531 C38.9194832,3.05186531 40.2467103,2.57118706 41.3165664,1.76248691 C40.2101233,5.64449996 38.1246609,9.21615382 35.2178822,12.107793 C30.5826804,16.719024 24.4511941,19.0908747 18.2818591,19.0908747 C13.5583437,19.0908747 8.81211915,17.7018281 4.69165941,14.8644386 C3.51078057,14.0519536 2.39424448,13.1246609 1.37106847,12.107793 C-0.457022823,10.2885331 -0.457022823,7.33759762 1.37106847,5.51833769 C3.201683,3.69907775 6.16649635,3.69907775 7.99584926,5.51833769 C8.62161412,6.14031768 9.30289038,6.70804789 10.0220153,7.20260399 C15.8027705,11.181762 23.6134767,10.4739916 28.5943631,5.51833769 C30.1676066,3.95392554 31.3421773,2.06149149 32.0575174,0 Z"></path></clipPath><clipPath id="i17"><path d="M12.7343512,0.541459092 C15.0216731,-0.662128962 17.8552777,0.2083907 19.0651739,2.48309643 C20.2738084,4.75780215 19.3995039,7.57626726 17.1121819,8.7785937 C15.8316349,9.45230022 14.6558025,10.3177734 13.6174871,11.3510424 C8.72869909,16.2145979 8.06003906,23.6998054 11.591321,29.2938404 C9.65599178,28.8762433 7.55286674,29.4086481 6.0502741,30.9024093 C4.91355205,32.0328233 4.28778719,33.5354159 4.28778719,35.1351535 C4.28778719,35.160386 4.29157206,35.1856184 4.29157206,35.2121125 C-2.21966269,25.9328775 -1.32391057,13.0353087 6.99396788,4.76158702 C8.69463528,3.06975098 10.6261796,1.64916382 12.7343512,0.541459092 Z"></path></clipPath><clipPath id="i18"><path d="M0,1.15283669 C8.43899423,-1.55839049 17.752293,0.562397267 24.2130628,6.9891033 C29.1535773,11.9043853 31.6831308,18.7007468 31.1532493,25.6358868 C30.9665291,28.0821732 28.913869,29.9418051 26.4877686,29.9418051 C26.369176,29.9418051 26.2493219,29.9380202 26.1282061,29.9291888 C23.5481877,29.7336373 21.6166433,27.4955186 21.8121948,24.9293781 C22.1351703,20.7067269 20.5959906,16.5698661 17.5895437,13.5785587 C13.8273848,9.83658573 8.47936616,8.50052729 3.52749707,9.83280086 C4.50020817,8.11573237 4.60870772,5.95835755 3.61707228,4.08989433 C2.82981971,2.60874928 1.50006939,1.59440463 0,1.15283669 Z"></path></clipPath><clipPath id="i19"><path d="M1.43824988,0 C2.23181055,0 2.87649975,0.642165954 2.87649975,1.43068014 C2.87649975,2.22045595 2.23181055,2.8626219 1.43824988,2.8626219 C0.644689199,2.8626219 0,2.22045595 0,1.43068014 C0,0.642165954 0.644689199,0 1.43824988,0 Z"></path></clipPath><clipPath id="i20"><path d="M0,0.413710122 C2.39203664,-0.194392019 4.91780528,-0.13383413 7.2808246,0.606738395 L7.2808246,14.0392353 C5.89051638,14.4593556 4.868602,15.7310713 4.868602,17.250065 C4.868602,17.7849931 5.00611887,18.2845957 5.22942609,18.734995 L0,23.5026671 L0,11.953773 C1.4281569,11.558885 2.48413509,10.2669834 2.48413509,8.7214956 C2.48413509,7.17600779 1.4281569,5.88410615 0,5.48795662 Z"></path></clipPath><clipPath id="i21"><path d="M6.82159393,0 L6.82159393,4.46235949 C5.77570872,4.80299762 4.96196208,5.63062211 4.64150991,6.68155381 L0,6.68155381 C0.639642708,5.26853639 1.52908671,3.93878607 2.69608771,2.77809318 C3.9186001,1.56062728 5.32404779,0.642165954 6.82159393,0 Z"></path></clipPath><clipPath id="i22"><path d="M1.43824988,0 C2.23054893,0 2.87649975,0.642165954 2.87649975,1.43194176 C2.87649975,2.22171757 2.23054893,2.86388353 1.43824988,2.86388353 C1.03705386,2.86388353 0.674968144,2.69861095 0.413812245,2.43367019 C0.408765755,2.4286237 0.407504132,2.42231558 0.403719264,2.41600747 C0.399934396,2.41348422 0.396149528,2.4122226 0.393626282,2.40969936 C0.151394724,2.15358995 0,1.81042857 0,1.43194176 C0,0.642165954 0.644689199,0 1.43824988,0 Z"></path></clipPath><clipPath id="i23"><path d="M0.47414352,0 C0.528393296,0.00883135889 0.583904695,0.0164010951 0.640677716,0.0164010951 L5.81585403,0.0164010951 C6.13630619,1.0673328 6.95005283,1.89495729 7.99593805,2.23559542 L7.99593805,15.5936566 C6.49839191,14.9514906 5.09294422,14.0330293 3.87043183,12.8155634 C0.382045063,9.34357771 -0.743322384,4.41820269 0.47414352,0 Z"></path></clipPath><clipPath id="i24"><path d="M0,0 C1.23512862,0.6169335 2.39582151,1.42941852 3.42656725,2.45511777 C8.59795869,7.60253838 8.59795869,15.9481725 3.42656725,21.0955932 C2.40339124,22.1149843 1.25026809,22.9236844 0.025232454,23.5393563 L0.025232454,19.0593341 C1.40166282,18.6329056 2.41096098,17.3662365 2.41096098,15.8573357 C2.41096098,14.338342 1.39030821,13.0653647 0,12.6465059 Z"></path></clipPath><clipPath id="i25"><path d="M6.38002599,0 C6.61342619,0.134993629 6.86322748,0.240969936 7.12690663,0.31792892 L7.12690663,5.55366312 L7.17863316,5.55366312 C4.8522009,6.29928214 2.36554256,6.38381086 0,5.81608064 Z"></path></clipPath><clipPath id="i26"><path d="M8.84019025,0 L13.8071988,13.7289782 L10.2683471,13.7289782 L9.44576915,11.3041394 L4.32231937,11.3041394 L3.50100299,13.7289782 L0,13.7289782 L4.96700857,0 L8.84019025,0 Z M6.88341345,3.69655451 L5.20167039,8.72159772 L8.58534247,8.72159772 L6.88341345,3.69655451 Z"></path></clipPath><clipPath id="i27"><path d="M3.34456178,0 L3.34456178,14.4708124 L0,14.4708124 L0,0 L3.34456178,0 Z"></path></clipPath><clipPath id="i28"><path d="M3.34456178,0 L3.34456178,14.4708124 L0,14.4708124 L0,0 L3.34456178,0 Z"></path></clipPath><clipPath id="i29"><path d="M3.6574442,4.75127108 L3.6574442,15.6643074 L0.312882429,15.6643074 L0.312882429,4.75127108 L3.6574442,4.75127108 Z M1.99588711,0 C2.56866382,0 3.04177233,0.17284231 3.41395102,0.518526929 C3.7848681,0.864211549 3.97032663,1.29694813 3.97032663,1.81925993 C3.97032663,2.32643226 3.7848681,2.75412235 3.41395102,3.09980697 C3.04177233,3.44549159 2.56866382,3.6183339 1.99588711,3.6183339 C1.40797093,3.6183339 0.929815929,3.44549159 0.557637233,3.09980697 C0.185458537,2.75412235 0,2.32643226 0,1.81925993 C0,1.29694813 0.185458537,0.864211549 0.557637233,0.518526929 C0.929815929,0.17284231 1.40797093,0 1.99588711,0 Z"></path></clipPath><clipPath id="i30"><path d="M4.81056735,0 C5.5801572,0 6.25512534,0.156441215 6.83547178,0.469323644 C7.4145566,0.782206073 7.86243266,1.19223345 8.17531509,1.70192902 L8.17531509,0.156441215 L11.5186152,0.156441215 L11.5186152,11.0694776 L8.17531509,11.0694776 L8.17531509,9.52525138 C7.84855481,10.0324237 7.39563226,10.4437127 6.81528582,10.7565951 C6.23493938,11.0694776 5.55997124,11.2259188 4.79164301,11.2259188 C3.90472225,11.2259188 3.09728373,10.9950418 2.36680418,10.5307647 C1.63632464,10.0690108 1.05976307,9.41044371 0.63585784,8.55506352 C0.211952613,7.70220658 0,6.714356 0,5.59277343 C0,4.47245247 0.211952613,3.48838676 0.63585784,2.64057631 C1.05976307,1.79276586 1.63632464,1.14176854 2.36680418,0.685061126 C3.09728373,0.228353709 3.91103037,0 4.81056735,0 Z M5.78832494,2.91308681 C5.12344978,2.91308681 4.55950443,3.1515335 4.0964889,3.62842688 C3.634735,4.10532026 3.40259642,4.76010244 3.40259642,5.59277343 C3.40259642,6.42796765 3.634735,7.08905795 4.0964889,7.57856755 C4.55950443,8.06807716 5.12344978,8.31157034 5.78832494,8.31157034 C6.45320011,8.31157034 7.01714545,8.06933878 7.48016098,7.58739891 C7.94317651,7.10545904 8.17531509,6.44689199 8.17531509,5.61295939 C8.17531509,4.77902678 7.94317651,4.12045974 7.48016098,3.63725824 C7.01714545,3.15531837 6.45320011,2.91308681 5.78832494,2.91308681 Z"></path></clipPath><clipPath id="i31"><path d="M6.64875162,0 C7.9255138,0 8.94616656,0.415073868 9.70944829,1.24269836 C10.47273,2.07032285 10.8537401,3.2070449 10.8537401,4.65538776 L10.8537401,11.0303673 L7.52810265,11.0303673 L7.52810265,5.10452544 C7.52810265,4.37530752 7.33885924,3.80757731 6.96163405,3.40385804 C6.58314724,3.00013878 6.0747133,2.7957559 5.43633221,2.7957559 C4.79795112,2.7957559 4.28951718,3.00013878 3.91103037,3.40385804 C3.53254356,3.80757731 3.34330015,4.37530752 3.34330015,5.10452544 L3.34330015,11.0303673 L0,11.0303673 L0,0.117330911 L3.34330015,0.117330911 L3.34330015,1.56441215 C3.68267666,1.08247228 4.13938408,0.700200598 4.7134224,0.420120359 C5.28619911,0.14004012 5.93214993,0 6.64875162,0 Z"></path></clipPath><clipPath id="i32"><path d="M5.47544251,0 C6.84430314,0 7.98859493,0.359562469 8.90831788,1.07616416 C9.8267792,1.79276586 10.4298349,2.80458726 10.7162232,4.10658189 L7.15844719,4.10658189 C6.85818099,3.2739109 6.27783455,2.85505217 5.41740787,2.85505217 C4.80425924,2.85505217 4.31474963,3.09349886 3.95014067,3.57039224 C3.58553171,4.04476237 3.40259642,4.72730025 3.40259642,5.61295939 C3.40259642,6.49988015 3.58553171,7.17989478 3.95014067,7.65678816 C4.31474963,8.13368154 4.80425924,8.36960499 5.41740787,8.36960499 C6.27783455,8.36960499 6.85818099,7.9532695 7.15844719,7.11807527 L10.7162232,7.11807527 C10.4298349,8.39736069 9.82425596,9.40161235 8.8982249,10.1308303 C7.97219384,10.8600482 6.83168692,11.2259188 5.47544251,11.2259188 C4.40684809,11.2259188 3.45810782,10.9988267 2.63048333,10.5421193 C1.80285884,10.0854119 1.15690802,9.43441454 0.693892485,8.58660409 C0.230876954,7.73879364 0,6.74715819 0,5.61295939 C0,4.4800222 0.230876954,3.48838676 0.693892485,2.64057631 C1.15690802,1.79276586 1.80285884,1.14176854 2.63048333,0.685061126 C3.45810782,0.228353709 4.40684809,0 5.47544251,0 Z"></path></clipPath><clipPath id="i33"><path d="M5.51455282,0 C6.57053102,0 7.51043993,0.222045595 8.3317563,0.666136785 C9.15307268,1.11022798 9.79523864,1.74103932 10.2582542,2.5623557 C10.7200081,3.38367208 10.9521467,4.34124371 10.9521467,5.43633221 C10.9521467,5.74921464 10.9319607,6.07723654 10.8928504,6.41535143 L3.32563743,6.41535143 C3.37736397,7.09410444 3.59562469,7.61263137 3.98041962,7.97093221 C4.36395292,8.32923306 4.83706143,8.50712186 5.39722191,8.50712186 C6.23115451,8.50712186 6.81276258,8.15639075 7.13826123,7.45240528 L10.6972989,7.45240528 C10.5156252,8.16900698 10.1863417,8.8149578 9.71070992,9.3877345 C9.23381653,9.96177283 8.637069,10.4109105 7.92046731,10.7364092 C7.20386561,11.0631694 6.40147358,11.2259188 5.51455282,11.2259188 C4.44595839,11.2259188 3.49469488,10.9988267 2.66076227,10.5421193 C1.82556805,10.0854119 1.17330911,9.43441454 0.703985466,8.58660409 C0.234661822,7.74005526 0,6.74841982 0,5.61295939 C0,4.4800222 0.230876954,3.48838676 0.693892485,2.64057631 C1.15690802,1.79402748 1.80664371,1.14176854 2.64057631,0.686322748 C3.47450891,0.229615331 4.43334216,0 5.51455282,0 Z M5.47544251,2.67968661 C4.91528204,2.67968661 4.44217352,2.84243594 4.05864022,3.16919622 C3.6738453,3.49469488 3.43539861,3.95771041 3.34456178,4.55824281 L7.52936427,4.55824281 C7.52936427,3.98294286 7.33381275,3.52749707 6.94270971,3.18812056 C6.55160668,2.85000568 6.06209707,2.67968661 5.47544251,2.67968661 Z"></path></clipPath></defs><g transform="translate(-110.0 -3100.0)"><g clip-path="url(#i0)"><g transform="translate(25.0 2829.0)"><g transform="translate(0.0 223.0)"><g transform="translate(85.0 47.9999999999998)"><g transform="translate(56.06335869194959 7.688959539760039)"><g clip-path="url(#i1)"><polygon points="0,0 8.06050742,0 8.06050742,13.6242635 0,13.6242635 0,0" stroke="none" fill="#040050"></polygon></g></g><g transform="translate(66.1148328980735 10.5118403290312)"><g clip-path="url(#i2)"><polygon points="0,0 9.93149389,0 9.93149389,10.9584548 0,10.9584548 0,0" stroke="none" fill="#040050"></polygon></g></g><g transform="translate(78.07564689703898 7.826097927153903)"><g clip-path="url(#i3)"><polygon points="0,0 6.18825934,0 6.18825934,13.4867467 0,13.4867467 0,0" stroke="none" fill="#040050"></polygon></g></g><g transform="translate(86.23519170356914 10.5118403290312)"><g clip-path="url(#i4)"><polygon points="0,0 9.93149389,0 9.93149389,10.9584548 0,10.9584548 0,0" stroke="none" fill="#040050"></polygon></g></g><g transform="translate(99.12317222411465 10.33546547569484)"><g clip-path="url(#i5)"><polygon points="0,0 5.4968901,0 5.4968901,10.9773791 0,10.9773791 0,0" stroke="none" fill="#040050"></polygon></g></g><g transform="translate(105.9409812901354 10.336096287044398)"><g clip-path="url(#i6)"><polygon points="0,0 10.7010837,0 10.7010837,11.1540063 0,11.1540063 0,0" stroke="none" fill="#040050"></polygon></g></g><g transform="translate(123.9723452304354 7.688959539760037)"><g clip-path="url(#i7)"><polygon points="0,0 14.4253939,0 14.4253939,13.6242635 0,13.6242635 0,0" stroke="none" fill="#040050"></polygon></g></g><g transform="translate(140.6239985869826 10.335086988885099)"><g clip-path="url(#i8)"><polygon points="0,0 11.0757857,0 11.0757857,11.1540063 0,11.1540063 0,0" stroke="none" fill="#040050"></polygon></g></g><g transform="translate(153.9265483264575 6.807085273078241)"><g clip-path="url(#i9)"><polygon points="0,0 11.1338203,0 11.1338203,14.682765 0,14.682765 0,0" stroke="none" fill="#040050"></polygon></g></g><g clip-path="url(#i10)"><g transform="translate(166.9921653230385 6.218538283940806)"><g clip-path="url(#i11)"><polygon points="0,0 2.85757541,0 2.85757541,15.0953156 0,15.0953156 0,0" stroke="none" fill="#040050"></polygon></g></g><g transform="translate(172.48905542308523 6.807716084427794)"><g clip-path="url(#i12)"><polygon points="0,0 2.24695003,0 2.24695003,14.5061378 0,14.5061378 0,0" stroke="none" fill="#040050"></polygon></g></g><g transform="translate(177.3967677226449 6.218538283940806)"><g clip-path="url(#i13)"><polygon points="0,0 2.85757541,0 2.85757541,15.0953156 0,15.0953156 0,0" stroke="none" fill="#040050"></polygon></g></g><g transform="translate(181.9681314106203 7.826097927153903)"><g clip-path="url(#i14)"><polygon points="0,0 6.18825934,0 6.18825934,13.4867467 0,13.4867467 0,0" stroke="none" fill="#040050"></polygon></g></g><g transform="translate(188.9442741253801 10.511840329031202)"><g clip-path="url(#i15)"><polygon points="0,0 11.0555997,0 11.0555997,15.8787833 0,15.8787833 0,0" stroke="none" fill="#040050"></polygon></g></g><g transform="translate(5.622610802013554 28.54951238282679)"><g clip-path="url(#i16)"><polygon points="0,0 41.3165664,0 41.3165664,19.0906224 0,19.0906224 0,0" stroke="none" fill="#108943"></polygon></g></g><g transform="translate(0.0003421981341809044 2.2278027320768956)"><g clip-path="url(#i17)"><polygon points="-8.8817842e-16,-4.4408921e-15 19.6087857,-4.4408921e-15 19.6087857,35.2121125 -8.8817842e-16,35.2121125 -8.8817842e-16,-4.4408921e-15" stroke="none" fill="#86C300"></polygon></g></g><g transform="translate(16.62780868753392 -0.00021819227025687837)"><g clip-path="url(#i18)"><polygon points="0,0.00021819227 31.2225063,0.00021819227 31.2225063,29.9418051 0,29.9418051 0,0.00021819227" stroke="none" fill="#00B86D"></polygon></g></g><g transform="translate(18.28709486141074 17.94418581179113)"><g clip-path="url(#i19)"><polygon points="0,0 2.87649975,0 2.87649975,2.8626219 0,2.8626219 0,0" stroke="none" fill="#306AEA"></polygon></g></g><g transform="translate(20.62677415692064 10.654127330631292)"><g clip-path="url(#i20)"><polygon points="0,-1.88737914e-15 7.2808246,-1.88737914e-15 7.2808246,23.5026671 0,23.5026671 0,-1.88737914e-15" stroke="none" fill="#306AEA"></polygon></g></g><g transform="translate(11.85824407352737 11.72451206742112)"><g clip-path="url(#i21)"><polygon points="0,0 6.82159393,0 6.82159393,6.68155381 0,6.68155381 0,0" stroke="none" fill="#306AEA"></polygon></g></g><g transform="translate(27.44256462662277 26.47250293327278)"><g clip-path="url(#i22)"><polygon points="0,0 2.87649975,0 2.87649975,2.86388353 0,2.86388353 0,0" stroke="none" fill="#306AEA"></polygon></g></g><g transform="translate(10.68364763082357 20.32802190177006)"><g clip-path="url(#i23)"><polygon points="-3.33066907e-16,0 7.99593805,0 7.99593805,15.5936566 -3.33066907e-16,15.5936566 -3.33066907e-16,0" stroke="none" fill="#306AEA"></polygon></g></g><g transform="translate(29.85466106506188 12.047487478394713)"><g clip-path="url(#i24)"><polygon points="0,0 7.30511083,0 7.30511083,23.5393563 0,23.5393563 0,0" stroke="none" fill="#306AEA"></polygon></g></g><g transform="translate(20.80567225565522 30.804662957495925)"><g clip-path="url(#i25)"><polygon points="0,0 7.17863316,0 7.17863316,6.18597281 0,6.18597281 0,0" stroke="none" fill="#306AEA"></polygon></g></g><g transform="translate(54.79239998486054 27.579072202667074)"><g clip-path="url(#i26)"><polygon points="0,0 13.8071988,0 13.8071988,13.7289782 0,13.7289782 0,0" stroke="none" fill="#040050"></polygon></g></g><g transform="translate(70.10458852175668 26.837238055587093)"><g clip-path="url(#i27)"><polygon points="0,0 3.34456178,0 3.34456178,14.4708124 0,14.4708124 0,0" stroke="none" fill="#040050"></polygon></g></g><g transform="translate(75.87398912481235 26.837238055587093)"><g clip-path="url(#i28)"><polygon points="0,0 3.34456178,0 3.34456178,14.4708124 0,14.4708124 0,0" stroke="none" fill="#040050"></polygon></g></g><g transform="translate(81.33050729848732 25.643742982223728)"><g clip-path="url(#i29)"><polygon points="0,0 3.97032663,0 3.97032663,15.6643074 0,15.6643074 0,0" stroke="none" fill="#040050"></polygon></g></g><g transform="translate(86.74753668167997 30.238825176942594)"><g clip-path="url(#i30)"><polygon points="0,0 11.5186152,0 11.5186152,11.2259188 0,11.2259188 0,0" stroke="none" fill="#040050"></polygon></g></g><g transform="translate(100.6916215636552 30.27793548061517)"><g clip-path="url(#i31)"><polygon points="0,0 10.8537401,0 10.8537401,11.0303673 0,11.0303673 0,0" stroke="none" fill="#040050"></polygon></g></g><g transform="translate(113.2067925766121 30.238825176942594)"><g clip-path="url(#i32)"><polygon points="0,0 10.7162232,0 10.7162232,11.2259188 0,11.2259188 0,0" stroke="none" fill="#040050"></polygon></g></g><g transform="translate(125.0384164111881 30.23819436559303)"><g clip-path="url(#i33)"><polygon points="0,0 10.9521467,0 10.9521467,11.2259188 0,11.2259188 0,0" stroke="none" fill="#040050"></polygon></g></g></g></g></g></g></g></g></svg>