<?xml version="1.0" encoding="UTF-8"?>
<svg width="250px" height="51px" viewBox="0 0 250 51" version="1.1" xmlns="http://www.w3.org/2000/svg" xmlns:xlink="http://www.w3.org/1999/xlink">
    <title>237C4C0B-D7E0-415D-8624-084CE63EAB57</title>
    <defs>
        <polygon id="path-1" points="0 50.4316493 250 50.4316493 250 0 0 0"></polygon>
    </defs>
    <g id="Page-1" stroke="none" stroke-width="1" fill="none" fill-rule="evenodd">
        <g id="Homepage" transform="translate(-135.000000, -1718.000000)">
            <g id="Footer" transform="translate(0.000000, 1670.000000)">
                <g id="Logo/FMDM_White" transform="translate(135.000000, 48.000000)">
                    <polygon id="Fill-1" fill="#FFFFFF" points="67.881259 8.13950072 67.881259 10.0693684 61.7270513 10.0693684 61.7270513 14.3230906 66.5256773 14.3230906 66.5256773 16.2542938 61.7270513 16.2542938 61.7270513 22.5620897 59.3484393 22.5620897 59.3484393 8.13950072"></polygon>
                    <g id="Group-49">
                        <path d="M80.5023265,11.1277906 L80.5023265,22.5627574 L78.1237145,22.5627574 L78.1237145,21.2138534 C77.7484254,21.6839665 77.2582791,22.0539134 76.6532756,22.3236942 C76.0482721,22.593475 75.4045377,22.7283654 74.7234079,22.7283654 C73.8192415,22.7283654 73.0098991,22.5413886 72.2940451,22.1674351 C71.5768555,21.794817 71.013254,21.2405643 70.6032406,20.5073482 C70.1932272,19.774132 69.9888882,18.8886633 69.9888882,17.8509421 L69.9888882,11.1277906 L72.3461315,11.1277906 L72.3461315,17.4983573 C72.3461315,18.522723 72.6025568,19.3080256 73.116743,19.8542649 C73.6322647,20.4005043 74.3347633,20.6742918 75.2242386,20.6742918 C76.1137139,20.6742918 76.8202191,20.4005043 77.3424186,19.8542649 C77.8632826,19.3080256 78.1237145,18.522723 78.1237145,17.4983573 L78.1237145,11.1277906 L80.5023265,11.1277906 Z" id="Fill-2" fill="#FFFFFF"></path>
                        <path d="M86.4061189,13.0579254 L86.4061189,19.3870901 C86.4061189,19.8158011 86.5062851,20.1243129 86.7079529,20.3099541 C86.9096208,20.4969309 87.2541923,20.5904193 87.740332,20.5904193 L89.2014221,20.5904193 L89.2014221,22.561689 L87.3236408,22.561689 C86.2525309,22.561689 85.432504,22.313277 84.8622248,21.8151173 C84.2919456,21.3169577 84.0061382,20.5076153 84.0061382,19.3870901 L84.0061382,13.0579254 L82.6505564,13.0579254 L82.6505564,11.1280577 L84.0061382,11.1280577 L84.0061382,8.28467485 L86.4061189,8.28467485 L86.4061189,11.1280577 L89.2014221,11.1280577 L89.2014221,13.0579254 L86.4061189,13.0579254 Z" id="Fill-4" fill="#FFFFFF"></path>
                        <path d="M101.801655,11.1277906 L101.801655,22.5627574 L99.423043,22.5627574 L99.423043,21.2138534 C99.0477539,21.6839665 98.5576076,22.0539134 97.9526041,22.3236942 C97.3476006,22.593475 96.7038661,22.7283654 96.0227364,22.7283654 C95.11857,22.7283654 94.3092276,22.5413886 93.5933735,22.1674351 C92.876184,21.794817 92.3125825,21.2405643 91.9025691,20.5073482 C91.4925557,19.774132 91.2882167,18.8886633 91.2882167,17.8509421 L91.2882167,11.1277906 L93.6454599,11.1277906 L93.6454599,17.4983573 C93.6454599,18.522723 93.9018853,19.3080256 94.4160715,19.8542649 C94.9315932,20.4005043 95.6340917,20.6742918 96.5235671,20.6742918 C97.4130424,20.6742918 98.1195476,20.4005043 98.6417471,19.8542649 C99.1626111,19.3080256 99.423043,18.522723 99.423043,17.4983573 L99.423043,11.1277906 L101.801655,11.1277906 Z" id="Fill-6" fill="#FFFFFF"></path>
                        <path d="M108.696291,11.4285562 C109.273248,11.1040179 109.958384,10.9410809 110.750365,10.9410809 L110.750365,13.3891415 L110.145361,13.3891415 C109.214484,13.3891415 108.507979,13.6255336 108.028517,14.0956466 C107.549055,14.5657597 107.308656,15.3817799 107.308656,16.5437072 L107.308656,22.561689 L104.93138,22.561689 L104.93138,11.1280577 L107.308656,11.1280577 L107.308656,12.7881446 C107.655899,12.207181 108.119334,11.75443 108.696291,11.4285562" id="Fill-8" fill="#FFFFFF"></path>
                        <path d="M120.994022,15.8178365 C120.979331,14.9457233 120.666813,14.2472314 120.055131,13.7210253 C119.44345,13.1961547 118.684859,12.9330516 117.780692,12.9330516 C116.960665,12.9330516 116.258167,13.192148 115.674532,13.7116764 C115.089562,14.2298693 114.742319,14.9323678 114.631469,15.8178365 L120.994022,15.8178365 Z M123.392667,17.7263354 L114.6101,17.7263354 C114.679548,18.6398506 115.020113,19.3730668 115.63313,19.9259839 C116.244811,20.4802366 116.99539,20.7566951 117.884865,20.7566951 C119.165656,20.7566951 120.068487,20.2238112 120.597364,19.159379 L123.162953,19.159379 C122.81571,20.2104557 122.186667,21.0718846 121.275823,21.7423299 C120.364979,22.4127753 119.233769,22.7493336 117.884865,22.7493336 C116.787044,22.7493336 115.802745,22.5035926 114.933303,22.0121108 C114.063861,21.5219644 113.382731,20.8288147 112.888578,19.9366683 C112.39576,19.0445218 112.148684,18.0108073 112.148684,16.834189 C112.148684,15.6589062 112.389083,14.6251917 112.868545,13.7317097 C113.348007,12.8395632 114.022459,12.1517557 114.891901,11.6669516 C115.761343,11.183483 116.758998,10.9417487 117.884865,10.9417487 C118.970666,10.9417487 119.936268,11.1768053 120.785677,11.6469184 C121.63375,12.1170314 122.294846,12.778128 122.766295,13.6288724 C123.240415,14.4796169 123.476807,15.458574 123.476807,16.5644082 C123.476807,16.9931193 123.44876,17.3817639 123.392667,17.7263354 L123.392667,17.7263354 Z" id="Fill-10" fill="#FFFFFF"></path>
                        <polygon id="Fill-12" fill="#FFFFFF" points="146.507273 8.13950072 146.507273 22.5620897 144.128661 22.5620897 144.128661 12.6843725 139.70666 22.5620897 138.058593 22.5620897 133.615223 12.6843725 133.615223 22.5620897 131.236611 22.5620897 131.236611 8.13950072 133.8022 8.13950072 138.893311 19.448926 143.961718 8.13950072"></polygon>
                        <path d="M156.343054,20.2588026 C156.878609,19.967653 157.313998,19.5322642 157.64655,18.9513006 C157.980437,18.3703369 158.14738,17.6651673 158.14738,16.8344561 C158.14738,16.0050804 157.98845,15.3025819 157.667919,14.728296 C157.347387,14.1540101 156.924018,13.7212924 156.395141,13.4314783 C155.866264,13.1403288 155.295984,12.994754 154.684303,12.994754 C154.072622,12.994754 153.506349,13.1403288 152.98415,13.4314783 C152.463286,13.7212924 152.049266,14.1540101 151.743425,14.728296 C151.437584,15.3025819 151.283996,16.0050804 151.283996,16.8344561 C151.283996,18.0658319 151.600521,19.0167424 152.233571,19.6885234 C152.866621,20.3589687 153.662608,20.6941914 154.621532,20.6941914 C155.234549,20.6941914 155.807499,20.5499522 156.343054,20.2588026 M151.680654,22.0123779 C150.804534,21.520896 150.115391,20.8290818 149.615896,19.9369354 C149.115066,19.044789 148.863982,18.0110744 148.863982,16.8344561 C148.863982,15.6725288 149.121743,14.6414853 149.635929,13.7426612 C150.150116,12.843837 150.852614,12.1520228 151.743425,11.6672187 C152.6329,11.1837501 153.627884,10.9406803 154.727041,10.9406803 C155.824862,10.9406803 156.819845,11.1837501 157.709321,11.6672187 C158.598796,12.1520228 159.30263,12.843837 159.816816,13.7426612 C160.331002,14.6414853 160.588763,15.6725288 160.588763,16.8344561 C160.588763,17.9963833 160.324325,19.0274268 159.795447,19.926251 C159.26657,20.8264107 158.546709,21.520896 157.637201,22.0123779 C156.725021,22.5038597 155.720689,22.7482651 154.621532,22.7482651 C153.537067,22.7482651 152.556774,22.5038597 151.680654,22.0123779" id="Fill-14" fill="#FFFFFF"></path>
                        <path d="M171.822062,14.7491306 C171.494853,14.1748447 171.063471,13.7394558 170.529251,13.4416285 C169.993696,13.1438012 169.41941,12.9955553 168.807729,12.9955553 C168.209403,12.9955553 167.643131,13.1478078 167.107576,13.4523129 C166.572021,13.756818 166.140639,14.1988845 165.813429,14.7798482 C165.48622,15.3608118 165.323283,16.0459482 165.323283,16.8352574 C165.323283,17.6232311 165.48622,18.3110386 165.813429,18.9000155 C166.140639,19.4876569 166.572021,19.9337301 167.107576,20.2382352 C167.643131,20.5427402 168.209403,20.6949928 168.807729,20.6949928 C169.41941,20.6949928 169.993696,20.5387336 170.529251,20.2275508 C171.063471,19.9163679 171.494853,19.463617 171.822062,18.8679623 C172.147936,18.2736432 172.312209,17.5818291 172.312209,16.7925199 C172.312209,16.0045462 172.147936,15.3234164 171.822062,14.7491306 M166.982034,11.4703588 C167.684533,11.117774 168.465829,10.9414816 169.328593,10.9414816 C170.34361,10.9414816 171.262467,11.1832159 172.082494,11.66802 C172.903857,12.1514886 173.550262,12.8392961 174.023046,13.7327781 C174.49583,14.6249245 174.732223,15.6452836 174.732223,16.7925199 C174.732223,17.9410916 174.49583,18.969464 174.023046,19.8749659 C173.550262,20.7804679 172.89985,21.4869731 172.07181,21.9918104 C171.245105,22.4966478 170.330254,22.7490665 169.328593,22.7490665 C168.439118,22.7490665 167.649808,22.5754451 166.960665,22.2308736 C166.272858,21.8849665 165.726619,21.4415644 165.323283,20.9020028 L165.323283,22.5620897 L162.946006,22.5620897 L162.946006,7.20595227 L165.323283,7.20595227 L165.323283,12.8299473 C165.726619,12.2756946 166.279536,11.8229437 166.982034,11.4703588" id="Fill-16" fill="#FFFFFF"></path>
                        <mask id="mask-2" fill="white">
                            <use xlink:href="#path-1"></use>
                        </mask>
                        <g id="Clip-19"></g>
                        <path d="M177.089733,22.5627574 L179.468345,22.5627574 L179.468345,11.1277906 L177.089733,11.1277906 L177.089733,22.5627574 Z M177.215274,9.17655418 C176.922789,8.88674014 176.777214,8.52747758 176.777214,8.09876649 C176.777214,7.66871985 176.922789,7.30945729 177.215274,7.01964325 C177.506424,6.72849366 177.868358,6.58291887 178.29974,6.58291887 C178.716431,6.58291887 179.071687,6.72849366 179.364172,7.01964325 C179.655322,7.30945729 179.802232,7.66871985 179.802232,8.09876649 C179.802232,8.52747758 179.655322,8.88674014 179.364172,9.17655418 C179.071687,9.46770376 178.716431,9.61327856 178.29974,9.61327856 C177.868358,9.61327856 177.506424,9.46770376 177.215274,9.17655418 L177.215274,9.17655418 Z" id="Fill-18" fill="#FFFFFF" mask="url(#mask-2)"></path>
                        <polygon id="Fill-20" fill="#FFFFFF" mask="url(#mask-2)" points="182.5962 22.5627574 184.974812 22.5627574 184.974812 7.20662005 182.5962 7.20662005"></polygon>
                        <path d="M188.104002,22.5627574 L190.482614,22.5627574 L190.482614,11.1277906 L188.104002,11.1277906 L188.104002,22.5627574 Z M188.229543,9.17655418 C187.937058,8.88674014 187.791483,8.52747758 187.791483,8.09876649 C187.791483,7.66871985 187.937058,7.30945729 188.229543,7.01964325 C188.520693,6.72849366 188.882627,6.58291887 189.314009,6.58291887 C189.7307,6.58291887 190.085956,6.72849366 190.378441,7.01964325 C190.669591,7.30945729 190.816501,7.66871985 190.816501,8.09876649 C190.816501,8.52747758 190.669591,8.88674014 190.378441,9.17655418 C190.085956,9.46770376 189.7307,9.61327856 189.314009,9.61327856 C188.882627,9.61327856 188.520693,9.46770376 188.229543,9.17655418 L188.229543,9.17655418 Z" id="Fill-21" fill="#FFFFFF" mask="url(#mask-2)"></path>
                        <path d="M196.386273,13.0579254 L196.386273,19.3870901 C196.386273,19.8158011 196.486439,20.1243129 196.688107,20.3099541 C196.889775,20.4969309 197.234346,20.5904193 197.720486,20.5904193 L199.181576,20.5904193 L199.181576,22.561689 L197.303795,22.561689 C196.232685,22.561689 195.412658,22.313277 194.842379,21.8151173 C194.272099,21.3169577 193.986292,20.5076153 193.986292,19.3870901 L193.986292,13.0579254 L192.63071,13.0579254 L192.63071,11.1280577 L193.986292,11.1280577 L193.986292,8.28467485 L196.386273,8.28467485 L196.386273,11.1280577 L199.181576,11.1280577 L199.181576,13.0579254 L196.386273,13.0579254 Z" id="Fill-22" fill="#FFFFFF" mask="url(#mask-2)"></path>
                        <polygon id="Fill-23" fill="#FFFFFF" mask="url(#mask-2)" points="211.719038 11.1277906 204.668677 27.9370048 202.205926 27.9370048 204.543136 22.3757806 200.015626 11.1277906 202.665354 11.1277906 205.898717 19.8435806 209.257622 11.1277906"></polygon>
                        <path d="M67.4847347,39.5927378 C68.235313,38.8595217 68.6119377,37.8218004 68.6119377,36.4795741 C68.6119377,35.1386834 68.235313,34.0942844 67.4847347,33.3463772 C66.7341564,32.5998055 65.6830797,32.2258519 64.3341756,32.2258519 L62.6447067,32.2258519 L62.6447067,40.6932298 L64.3341756,40.6932298 C65.6830797,40.6932298 66.7341564,40.325954 67.4847347,39.5927378 M68.6119377,30.1090075 C69.7658516,30.7180176 70.6593336,31.5727687 71.2923836,32.6719252 C71.9240981,33.7724172 72.2406231,35.0411883 72.2406231,36.4795741 C72.2406231,37.9046044 71.9240981,39.1707045 71.2923836,40.2778742 C70.6593336,41.385044 69.761845,42.2424662 68.6012533,42.8514763 C67.439326,43.4591509 66.0944286,43.763656 64.56389,43.763656 L59.0774565,43.763656 L59.0774565,29.1954923 L64.56389,29.1954923 C66.1077841,29.1954923 67.4566882,29.4999973 68.6119377,30.1090075" id="Fill-24" fill="#FFFFFF" mask="url(#mask-2)"></path>
                        <path d="M81.513871,35.878043 C81.019718,35.3665279 80.4187212,35.1101026 79.7095449,35.1101026 C79.0003686,35.1101026 78.3980362,35.3625213 77.9052188,35.8673587 C77.4110658,36.3735316 77.1639893,37.0680168 77.1639893,37.9534855 C77.1639893,38.8389542 77.4110658,39.5414528 77.9052188,40.0596456 C78.3980362,40.5778384 79.0003686,40.8382704 79.7095449,40.8382704 C80.4187212,40.8382704 81.019718,40.5818451 81.513871,40.07033 C82.008024,39.5588149 82.2551005,38.8589874 82.2551005,37.9748543 C82.2551005,37.0893856 82.008024,36.3895581 81.513871,35.878043 M74.212427,34.8202886 C74.6638424,33.9201289 75.2795303,33.2296502 76.0594907,32.7448461 C76.8381155,32.260042 77.7062221,32.0183077 78.6664815,32.0183077 C79.4865083,32.0183077 80.206369,32.1839157 80.8260635,32.5164673 C81.4444225,32.8490189 81.9212133,33.2844077 82.2551005,33.8239694 L82.2551005,32.1839157 L85.8223507,32.1839157 L85.8223507,43.7644573 L82.2551005,43.7644573 L82.2551005,42.1244037 C81.9065223,42.6639653 81.4230537,43.0993541 80.8046947,43.4319057 C80.1863357,43.7644573 79.4664751,43.9300653 78.6451127,43.9300653 C77.6995443,43.9300653 76.8381155,43.6843244 76.0594907,43.1928425 C75.2795303,42.7026962 74.6638424,42.0042043 74.212427,41.0973668 C73.759676,40.1905294 73.5339683,39.1434593 73.5339683,37.9534855 C73.5339683,36.7635117 73.759676,35.7191128 74.212427,34.8202886" id="Fill-25" fill="#FFFFFF" mask="url(#mask-2)"></path>
                        <path d="M94.8967354,40.7547986 L94.8967354,43.7637895 L93.0817249,43.7637895 C91.7875783,43.7637895 90.7792392,43.4499356 90.0567074,42.8195567 C89.3341756,42.1905133 88.972242,41.1634765 88.972242,39.7384462 L88.972242,35.1308036 L87.5538894,35.1308036 L87.5538894,32.1845835 L88.972242,32.1845835 L88.972242,29.3625694 L92.5394922,29.3625694 L92.5394922,32.1845835 L94.8753666,32.1845835 L94.8753666,35.1308036 L92.5394922,35.1308036 L92.5394922,39.7798482 C92.5394922,40.1257553 92.6222962,40.3741673 92.7892398,40.5264198 C92.9561833,40.6786724 93.2339774,40.7547986 93.6239576,40.7547986 L94.8967354,40.7547986 Z" id="Fill-26" fill="#FFFFFF" mask="url(#mask-2)"></path>
                        <path d="M104.148481,35.878043 C103.654328,35.3665279 103.053331,35.1101026 102.344155,35.1101026 C101.634979,35.1101026 101.032646,35.3625213 100.539829,35.8673587 C100.045676,36.3735316 99.7985993,37.0680168 99.7985993,37.9534855 C99.7985993,38.8389542 100.045676,39.5414528 100.539829,40.0596456 C101.032646,40.5778384 101.634979,40.8382704 102.344155,40.8382704 C103.053331,40.8382704 103.654328,40.5818451 104.148481,40.07033 C104.642634,39.5588149 104.88971,38.8589874 104.88971,37.9748543 C104.88971,37.0893856 104.642634,36.3895581 104.148481,35.878043 M96.847037,34.8202886 C97.2984524,33.9201289 97.9141403,33.2296502 98.6941006,32.7448461 C99.4727254,32.260042 100.340832,32.0183077 101.301091,32.0183077 C102.121118,32.0183077 102.840979,32.1839157 103.460673,32.5164673 C104.079032,32.8490189 104.555823,33.2844077 104.88971,33.8239694 L104.88971,32.1839157 L108.456961,32.1839157 L108.456961,43.7644573 L104.88971,43.7644573 L104.88971,42.1244037 C104.541132,42.6639653 104.057664,43.0993541 103.439305,43.4319057 C102.820946,43.7644573 102.101085,43.9300653 101.279723,43.9300653 C100.334154,43.9300653 99.4727254,43.6843244 98.6941006,43.1928425 C97.9141403,42.7026962 97.2984524,42.0042043 96.847037,41.0973668 C96.394286,40.1905294 96.1685783,39.1434593 96.1685783,37.9534855 C96.1685783,36.7635117 96.394286,35.7191128 96.847037,34.8202886" id="Fill-27" fill="#FFFFFF" mask="url(#mask-2)"></path>
                        <polygon id="Fill-28" fill="#FFFFFF" mask="url(#mask-2)" points="132.050361 29.1960265 132.050361 43.7641902 128.483111 43.7641902 128.483111 35.0270315 125.20701 43.7641902 122.328903 43.7641902 119.032769 35.0069983 119.032769 43.7641902 115.465519 43.7641902 115.465519 29.1960265 119.679175 29.1960265 123.788657 39.2820892 127.856738 29.1960265"></polygon>
                        <path d="M141.886542,35.878043 C141.39239,35.3665279 140.791393,35.1101026 140.082216,35.1101026 C139.37304,35.1101026 138.770708,35.3625213 138.27789,35.8673587 C137.783737,36.3735316 137.536661,37.0680168 137.536661,37.9534855 C137.536661,38.8389542 137.783737,39.5414528 138.27789,40.0596456 C138.770708,40.5778384 139.37304,40.8382704 140.082216,40.8382704 C140.791393,40.8382704 141.39239,40.5818451 141.886542,40.07033 C142.380695,39.5588149 142.627772,38.8589874 142.627772,37.9748543 C142.627772,37.0893856 142.380695,36.3895581 141.886542,35.878043 M134.585098,34.8202886 C135.036514,33.9201289 135.652202,33.2296502 136.432162,32.7448461 C137.210787,32.260042 138.078894,32.0183077 139.039153,32.0183077 C139.85918,32.0183077 140.57904,32.1839157 141.198735,32.5164673 C141.817094,32.8490189 142.293885,33.2844077 142.627772,33.8239694 L142.627772,32.1839157 L146.195022,32.1839157 L146.195022,43.7644573 L142.627772,43.7644573 L142.627772,42.1244037 C142.279194,42.6639653 141.795725,43.0993541 141.177366,43.4319057 C140.559007,43.7644573 139.839147,43.9300653 139.017784,43.9300653 C138.072216,43.9300653 137.210787,43.6843244 136.432162,43.1928425 C135.652202,42.7026962 135.036514,42.0042043 134.585098,41.0973668 C134.132348,40.1905294 133.90664,39.1434593 133.90664,37.9534855 C133.90664,36.7635117 134.132348,35.7191128 134.585098,34.8202886" id="Fill-29" fill="#FFFFFF" mask="url(#mask-2)"></path>
                        <path d="M153.912757,32.6098222 C154.539129,32.2438819 155.233614,32.0595762 155.998883,32.0595762 L155.998883,35.8164743 L155.018591,35.8164743 C154.12778,35.8164743 153.460006,36.0061222 153.015268,36.3867535 C152.57053,36.7673848 152.348829,37.4351591 152.348829,38.3887408 L152.348829,43.7643238 L148.780243,43.7643238 L148.780243,32.1837822 L152.348829,32.1837822 L152.348829,34.1149854 C152.76552,33.4779287 153.28772,32.977098 153.912757,32.6098222" id="Fill-30" fill="#FFFFFF" mask="url(#mask-2)"></path>
                        <polygon id="Fill-31" fill="#FFFFFF" mask="url(#mask-2)" points="164.823387 43.7639231 161.277506 38.9078685 161.277506 43.7639231 157.70892 43.7639231 157.70892 28.4077857 161.277506 28.4077857 161.277506 36.8951968 164.802018 32.1847171 169.203986 32.1847171 164.363958 37.9943533 169.246724 43.7639231"></polygon>
                        <path d="M177.92405,36.8535277 C177.92405,36.2445176 177.715704,35.761049 177.299013,35.4004509 C176.880987,35.0411883 176.360123,34.8608893 175.73375,34.8608893 C175.135425,34.8608893 174.631923,35.0345106 174.220574,35.3804177 C173.81056,35.7263247 173.556806,36.2178066 173.459311,36.8535277 L177.92405,36.8535277 Z M181.512669,38.8247974 L173.439278,38.8247974 C173.494035,39.5446581 173.727756,40.0949041 174.13777,40.4741999 C174.547783,40.8548312 175.052621,41.0458147 175.649611,41.0458147 C176.540422,41.0458147 177.158781,40.6718611 177.507359,39.9252894 L181.304323,39.9252894 C181.109333,40.6852165 180.758084,41.370353 180.250576,41.9793631 C179.741732,42.5883732 179.106011,43.0651641 178.342077,43.4110712 C177.576807,43.7569782 176.720721,43.9305996 175.775152,43.9305996 C174.634594,43.9305996 173.619577,43.6875297 172.730102,43.2040611 C171.839291,42.719257 171.144806,42.0274429 170.643975,41.1286187 C170.143144,40.2297945 169.892061,39.1773822 169.892061,37.974053 C169.892061,36.7707237 170.139137,35.719647 170.63329,34.8194873 C171.126108,33.9206631 171.819258,33.2288489 172.708733,32.7440448 C173.598208,32.2605762 174.621238,32.0175064 175.775152,32.0175064 C176.902355,32.0175064 177.904017,32.2538985 178.780137,32.7240116 C179.656257,33.1941247 180.340057,33.86457 180.83421,34.7366832 C181.328363,35.6087965 181.57544,36.6251489 181.57544,37.7870762 C181.57544,38.1196278 181.554071,38.4655348 181.512669,38.8247974 L181.512669,38.8247974 Z" id="Fill-32" fill="#FFFFFF" mask="url(#mask-2)"></path>
                        <path d="M189.940782,40.7547986 L189.940782,43.7637895 L188.125771,43.7637895 C186.831625,43.7637895 185.823286,43.4499356 185.100754,42.8195567 C184.378222,42.1905133 184.016288,41.1634765 184.016288,39.7384462 L184.016288,35.1308036 L182.597936,35.1308036 L182.597936,32.1845835 L184.016288,32.1845835 L184.016288,29.3625694 L187.583539,29.3625694 L187.583539,32.1845835 L189.919413,32.1845835 L189.919413,35.1308036 L187.583539,35.1308036 L187.583539,39.7798482 C187.583539,40.1257553 187.666343,40.3741673 187.833286,40.5264198 C188.00023,40.6786724 188.278024,40.7547986 188.668004,40.7547986 L189.940782,40.7547986 Z" id="Fill-33" fill="#FFFFFF" mask="url(#mask-2)"></path>
                        <path d="M199.8392,35.8678929 C199.345047,35.3630555 198.736037,35.1106368 198.013505,35.1106368 C197.304329,35.1106368 196.703332,35.3670622 196.209179,35.8785773 C195.715026,36.3900924 195.46795,37.0885843 195.46795,37.974053 C195.46795,38.8595217 195.715026,39.5580136 196.209179,40.0708642 C196.703332,40.5823793 197.304329,40.8374691 198.013505,40.8374691 C198.722681,40.8374691 199.327685,40.5783727 199.828516,40.0601798 C200.329346,39.5406514 200.579094,38.8394884 200.579094,37.9540197 C200.579094,37.068551 200.332017,36.3727302 199.8392,35.8678929 M196.92904,32.515666 C197.540721,32.1844499 198.256575,32.0188419 199.077937,32.0188419 C200.036861,32.0188419 200.906303,32.2605762 201.684928,32.7440448 C202.463553,33.2288489 203.079241,33.9206631 203.531992,34.8194873 C203.983407,35.719647 204.209115,36.764046 204.209115,37.9540197 C204.209115,39.142658 203.983407,40.1910636 203.531992,41.0979011 C203.079241,42.003403 202.463553,42.7018949 201.684928,43.1933767 C200.906303,43.6848586 200.036861,43.9305996 199.077937,43.9305996 C198.271266,43.9305996 197.558083,43.763656 196.939724,43.4324399 C196.320029,43.0998883 195.836561,42.6711773 195.489318,42.1449711 L195.489318,49.2834782 L191.922068,49.2834782 L191.922068,32.1844499 L195.489318,32.1844499 L195.489318,33.8245036 C195.836561,33.2836064 196.316023,32.8482176 196.92904,32.515666" id="Fill-34" fill="#FFFFFF" mask="url(#mask-2)"></path>
                        <polygon id="Fill-35" fill="#FFFFFF" mask="url(#mask-2)" points="206.087163 43.7645909 209.654413 43.7645909 209.654413 28.4084535 206.087163 28.4084535"></polygon>
                        <path d="M219.511163,35.878043 C219.01701,35.3665279 218.416013,35.1101026 217.706836,35.1101026 C216.99766,35.1101026 216.395328,35.3625213 215.90251,35.8673587 C215.408357,36.3735316 215.161281,37.0680168 215.161281,37.9534855 C215.161281,38.8389542 215.408357,39.5414528 215.90251,40.0596456 C216.395328,40.5778384 216.99766,40.8382704 217.706836,40.8382704 C218.416013,40.8382704 219.01701,40.5818451 219.511163,40.07033 C220.005315,39.5588149 220.252392,38.8589874 220.252392,37.9748543 C220.252392,37.0893856 220.005315,36.3895581 219.511163,35.878043 M212.209719,34.8202886 C212.661134,33.9201289 213.276822,33.2296502 214.056782,32.7448461 C214.835407,32.260042 215.703514,32.0183077 216.663773,32.0183077 C217.4838,32.0183077 218.20366,32.1839157 218.823355,32.5164673 C219.441714,32.8490189 219.918505,33.2844077 220.252392,33.8239694 L220.252392,32.1839157 L223.819642,32.1839157 L223.819642,43.7644573 L220.252392,43.7644573 L220.252392,42.1244037 C219.903814,42.6639653 219.420345,43.0993541 218.801986,43.4319057 C218.183627,43.7644573 217.463767,43.9300653 216.642404,43.9300653 C215.696836,43.9300653 214.835407,43.6843244 214.056782,43.1928425 C213.276822,42.7026962 212.661134,42.0042043 212.209719,41.0973668 C211.756968,40.1905294 211.53126,39.1434593 211.53126,37.9534855 C211.53126,36.7635117 211.756968,35.7191128 212.209719,34.8202886" id="Fill-36" fill="#FFFFFF" mask="url(#mask-2)"></path>
                        <path d="M226.43705,34.8198879 C226.931203,33.9210637 227.619011,33.2292496 228.501808,32.7444455 C229.385941,32.2609769 230.396952,32.017907 231.53751,32.017907 C232.9986,32.017907 234.217956,32.3985384 235.199584,33.1598011 C236.179877,33.9210637 236.822276,34.9935092 237.129452,36.375802 L233.332487,36.375802 C233.011956,35.4916688 232.393597,35.0482667 231.474739,35.0482667 C230.821656,35.0482667 230.299457,35.3006854 229.910812,35.8055228 C229.520832,36.3103601 229.325842,37.0328919 229.325842,37.9744536 C229.325842,38.9146798 229.520832,39.6372116 229.910812,40.1420489 C230.299457,40.6482219 230.821656,40.9006405 231.474739,40.9006405 C232.393597,40.9006405 233.011956,40.4572384 233.332487,39.5717697 L237.129452,39.5717697 C236.822276,40.928687 236.17587,41.9931193 235.1889,42.7677374 C234.200594,43.5423556 232.983909,43.9296647 231.53751,43.9296647 C230.396952,43.9296647 229.385941,43.6879304 228.501808,43.2031263 C227.619011,42.7196577 226.931203,42.0278435 226.43705,41.1276838 C225.942897,40.2288596 225.697156,39.1777829 225.697156,37.9744536 C225.697156,36.7711244 225.942897,35.7187121 226.43705,34.8198879" id="Fill-37" fill="#FFFFFF" mask="url(#mask-2)"></path>
                        <path d="M246.349278,36.8535277 C246.349278,36.2445176 246.140932,35.761049 245.724241,35.4004509 C245.306215,35.0411883 244.785351,34.8608893 244.158978,34.8608893 C243.560653,34.8608893 243.057151,35.0345106 242.645802,35.3804177 C242.235788,35.7263247 241.982034,36.2178066 241.884539,36.8535277 L246.349278,36.8535277 Z M249.937897,38.8247974 L241.864506,38.8247974 C241.919263,39.5446581 242.152984,40.0949041 242.562998,40.4741999 C242.973011,40.8548312 243.477849,41.0458147 244.074839,41.0458147 C244.96565,41.0458147 245.584009,40.6718611 245.932587,39.9252894 L249.729551,39.9252894 C249.534561,40.6852165 249.183312,41.370353 248.675804,41.9793631 C248.16696,42.5883732 247.531238,43.0651641 246.767305,43.4110712 C246.002035,43.7569782 245.145949,43.9305996 244.20038,43.9305996 C243.059822,43.9305996 242.044805,43.6875297 241.15533,43.2040611 C240.264519,42.719257 239.570033,42.0274429 239.069203,41.1286187 C238.568372,40.2297945 238.317289,39.1773822 238.317289,37.974053 C238.317289,36.7707237 238.564365,35.719647 239.058518,34.8194873 C239.551336,33.9206631 240.244486,33.2288489 241.133961,32.7440448 C242.023436,32.2605762 243.046466,32.0175064 244.20038,32.0175064 C245.327583,32.0175064 246.329245,32.2538985 247.205365,32.7240116 C248.080149,33.1941247 248.765285,33.86457 249.259438,34.7366832 C249.753591,35.6087965 250.000668,36.6251489 250.000668,37.7870762 C250.000668,38.1196278 249.979299,38.4655348 249.937897,38.8247974 L249.937897,38.8247974 Z" id="Fill-38" fill="#FFFFFF" mask="url(#mask-2)"></path>
                        <path d="M45.6429064,33.4530875 C45.4706206,33.4530875 45.2983348,33.4464098 45.123378,33.4330543 C43.336414,33.2981639 41.7057092,32.4768015 40.5357687,31.1212197 C40.2913633,30.8380834 40.0790111,30.5362495 39.8880276,30.2223955 C39.1307716,32.4046819 37.8873759,34.4080047 36.2219468,36.064085 C30.9492011,41.3101197 22.6808199,42.0593625 16.5613364,37.8470423 C15.8000737,37.3235073 15.0788775,36.7225104 14.4164454,36.064085 C12.4799,34.1382239 9.34136087,34.1382239 7.40347991,36.064085 C5.46827004,37.989946 5.46827004,41.1137941 7.40347991,43.0396551 C8.48660979,44.1161072 9.66857027,45.0977354 10.9186437,45.9578287 C15.2805453,48.9614774 20.304879,50.4319164 25.3051728,50.4319164 C31.8360053,50.4319164 38.3267713,47.9210851 43.2335768,43.0396551 C46.3106806,39.9785778 48.5183424,36.1976398 49.6896185,32.0881569 C48.5570733,32.9442435 47.1520762,33.4530875 45.6429064,33.4530875" id="Fill-39" fill="#108A43" mask="url(#mask-2)"></path>
                        <path d="M4.53939601,39.5522707 C4.53939601,37.8587951 5.2018281,36.2681568 6.40515735,35.0715053 C7.99579569,33.4902158 10.2221551,32.9266143 12.2708866,33.3686809 C8.53268622,27.4468585 9.24052695,19.5230489 14.4157776,14.3745092 C15.5149341,13.2806949 16.7596654,12.3645086 18.1152472,11.6513257 C20.5365967,10.3785479 21.4621319,7.39493239 20.1826763,4.98693834 C18.9018853,2.57894428 15.9022432,1.65741577 13.4808936,2.9315291 C11.249192,4.10414073 9.20446714,5.60796842 7.40414768,7.39893904 C-1.401124,16.1574665 -2.34936348,29.8107795 4.54340266,39.6337392 C4.54340266,39.6056926 4.53939601,39.5789817 4.53939601,39.5522707" id="Fill-40" fill="#87C300" mask="url(#mask-2)"></path>
                        <path d="M43.2339774,7.39840482 C36.3946332,0.59512044 26.5356137,-1.64993669 17.6021294,1.22015717 C19.1900966,1.68759916 20.5977648,2.76138021 21.4311471,4.32931422 C22.4808883,6.30726164 22.3660311,8.59104969 21.3363232,10.4087313 C26.5783513,8.998392 32.2397417,10.4127379 36.2223475,14.373975 C39.4049597,17.5405606 41.0343289,21.9198243 40.6924285,26.3899054 C40.4854185,29.1064112 42.5301433,31.4756743 45.2613401,31.6826843 C45.3895528,31.6920332 45.5164299,31.6960398 45.6419715,31.6960398 C48.2102314,31.6960398 50.3831689,29.7274412 50.5808301,27.1378126 C51.1417605,19.7963021 48.4639856,12.601702 43.2339774,7.39840482" id="Fill-41" fill="#00B96E" mask="url(#mask-2)"></path>
                        <path d="M20.8811682,22.0260005 C21.7212283,22.0260005 22.4036936,21.3462062 22.4036936,20.5101528 C22.4036936,19.675435 21.7212283,18.9956408 20.8811682,18.9956408 C20.0411082,18.9956408 19.3586429,19.675435 19.3586429,20.5101528 C19.3586429,21.3462062 20.0411082,22.0260005 20.8811682,22.0260005" id="Fill-42" fill="#FFFFFF" mask="url(#mask-2)"></path>
                        <path d="M21.8354177,17.0879432 C23.3472587,17.5073055 24.4651128,18.8749072 24.4651128,20.5109542 C24.4651128,22.1470012 23.3472587,23.5146029 21.8354177,23.9326296 L21.8354177,36.1582411 L27.3712665,31.1112031 C27.1348744,30.6344123 26.9892996,30.105535 26.9892996,29.5392625 C26.9892996,27.931262 28.0710939,26.585029 29.5428684,26.1402914 L29.5428684,11.9207058 C27.041386,11.1367388 24.3676178,11.0726325 21.8354177,11.7163669 L21.8354177,17.0879432 Z" id="Fill-43" fill="#FFFFFF" mask="url(#mask-2)"></path>
                        <path d="M17.4665712,19.4845851 C17.8058006,18.3720731 18.6672294,17.4959533 19.7743991,17.1353552 L19.7743991,12.4115199 C18.189103,13.0913141 16.7013019,14.0635935 15.4071553,15.3523978 C14.1717729,16.5811025 13.2302112,17.9887707 12.5530881,19.4845851 L17.4665712,19.4845851 Z" id="Fill-44" fill="#FFFFFF" mask="url(#mask-2)"></path>
                        <path d="M29.0505852,29.5395296 C29.0505852,29.9401941 29.2108511,30.3034633 29.4672764,30.5745797 C29.4699475,30.5772508 29.4739541,30.5785863 29.4779608,30.5812574 C29.4819674,30.5879352 29.483303,30.5946129 29.4886452,30.5999551 C29.7651037,30.8804203 30.1484062,31.0553772 30.5731106,31.0553772 C31.4118351,31.0553772 32.095636,30.375583 32.095636,29.5395296 C32.095636,28.7034762 31.4118351,28.0236819 30.5731106,28.0236819 C29.7330506,28.0236819 29.0505852,28.7034762 29.0505852,29.5395296" id="Fill-45" fill="#FFFFFF" mask="url(#mask-2)"></path>
                        <path d="M19.774132,23.8857518 C18.6669623,23.5251537 17.8055334,22.6490339 17.4663041,21.5365219 L11.9878839,21.5365219 C11.9277842,21.5365219 11.8690201,21.5285086 11.8115915,21.5191598 C10.5227871,26.1962508 11.7140964,31.4102324 15.4068882,35.0856621 C16.7010348,36.3744664 18.1888359,37.3467458 19.774132,38.02654 L19.774132,23.8857518 Z" id="Fill-46" fill="#FFFFFF" mask="url(#mask-2)"></path>
                        <path d="M35.2313704,15.3523978 C34.1402273,14.2665969 32.9115226,13.4065036 31.6040205,12.7534203 L31.6040205,26.1409591 C33.0757951,26.5843613 34.1562538,27.9319298 34.1562538,29.5399302 C34.1562538,31.1372463 33.087815,32.4781371 31.6307315,32.9295525 L31.6307315,37.6720854 C32.9275492,37.0203377 34.1482405,36.1642511 35.2313704,35.0851279 C40.705784,29.6360897 40.705784,20.801436 35.2313704,15.3523978" id="Fill-47" fill="#FFFFFF" mask="url(#mask-2)"></path>
                        <path d="M29.5693123,38.4887734 L29.5693123,32.9462468 C29.2901826,32.8647784 29.025744,32.7525923 28.7786675,32.6096886 L22.0247985,38.7665675 C24.528952,39.3675643 27.1613182,39.2780826 29.6240698,38.4887734 L29.5693123,38.4887734 Z" id="Fill-48" fill="#FFFFFF" mask="url(#mask-2)"></path>
                    </g>
                </g>
            </g>
        </g>
    </g>
</svg>