<?xml version="1.0" encoding="UTF-8"?>
<svg width="61px" height="61px" viewBox="0 0 61 61" version="1.1" xmlns="http://www.w3.org/2000/svg" xmlns:xlink="http://www.w3.org/1999/xlink">
    <title>BADBE2CB-D89A-40A1-B1FC-597DCA4937E0</title>
    <defs>
        <polygon id="path-1" points="0 60.5179792 300 60.5179792 300 0 0 0"></polygon>
    </defs>
    <g id="Page-1" stroke="none" stroke-width="1" fill="none" fill-rule="evenodd">
        <g id="Homepage" transform="translate(-135.000000, -35.000000)">
            <g id="Logo/FMDM-1" transform="translate(135.000000, 35.000000)">
                <g id="Group-49" transform="translate(0.000000, 0.000000)">
                    <g id="Clip-19"></g>
                    <path d="M54.7714876,40.143705 C54.5647447,40.143705 54.3580018,40.1356917 54.1480536,40.1196652 C52.0036968,39.9577967 50.046851,38.9721618 48.6429224,37.3454637 C48.3496359,37.0057001 48.0948133,36.6434994 47.8656331,36.2668747 C46.9569259,38.8856183 45.464851,41.2896057 43.4663362,43.276902 C37.1390413,49.5721437 27.2169839,50.471235 19.8736037,45.4164508 C18.9600885,44.7882087 18.094653,44.0670125 17.2997345,43.276902 C14.97588,40.9658687 11.209633,40.9658687 8.88417589,43.276902 C6.56192404,45.5879352 6.56192404,49.3365529 8.88417589,51.6475861 C10.1839317,52.9393287 11.6022843,54.1172825 13.1023725,55.1493945 C18.3366544,58.7537729 24.3658548,60.5182997 30.3662074,60.5182997 C38.2032064,60.5182997 45.9921256,57.5053021 51.8802921,51.6475861 C55.5728168,47.9742934 58.2220109,43.4371678 59.6275422,38.5057883 C58.268488,39.5330922 56.5824915,40.143705 54.7714876,40.143705" id="Fill-39" fill="#108A43" mask="url(#mask-2)"></path>
                    <path d="M5.44727521,47.4627248 C5.44727521,45.4305541 6.24219372,43.5217881 7.68618883,42.0858063 C9.59495483,40.1882589 12.2665862,39.5119371 14.725064,40.042417 C10.2392235,32.9362302 11.0886323,23.4276587 17.2989332,17.249411 C18.6179209,15.9368339 20.1115984,14.8374103 21.7382966,13.9815908 C24.643916,12.4542575 25.7545582,8.87391887 24.2192116,5.984326 C22.6822623,3.09473313 19.0826918,1.98889892 16.1770724,3.51783492 C13.4990304,4.92496888 11.0453606,6.7295621 8.88497722,8.87872685 C-1.6813488,19.3889598 -2.81923617,35.7729354 5.45208319,47.560487 C5.45208319,47.5268312 5.44727521,47.494778 5.44727521,47.4627248" id="Fill-40" fill="#87C300" mask="url(#mask-2)"></path>
                    <path d="M51.8807729,8.87808578 C43.6735599,0.714144528 31.8427365,-1.97992403 21.1225553,1.4641886 C23.028116,2.025119 24.7173178,3.31365625 25.7173766,5.19517707 C26.977066,7.56871397 26.8392373,10.3092596 25.6035878,12.4904775 C31.8940216,10.7980704 38.68769,12.4952855 43.466817,17.24877 C47.2859516,21.0486727 49.2411947,26.3037892 48.8309142,31.6678865 C48.5825022,34.9276934 51.036172,37.7708092 54.3136082,38.0192212 C54.4674634,38.0304398 54.6197159,38.0352478 54.7703658,38.0352478 C57.8522776,38.0352478 60.4598027,35.6729295 60.6969961,32.5653751 C61.3701126,23.7555626 58.1567827,15.1220424 51.8807729,8.87808578" id="Fill-41" fill="#00B96E" mask="url(#mask-2)"></path>
                    <path d="M25.0574019,26.4312006 C26.0654739,26.4312006 26.8844323,25.6154475 26.8844323,24.6121834 C26.8844323,23.610522 26.0654739,22.7947689 25.0574019,22.7947689 C24.0493298,22.7947689 23.2303714,23.610522 23.2303714,24.6121834 C23.2303714,25.6154475 24.0493298,26.4312006 25.0574019,26.4312006" id="Fill-42" fill="#316AEA" mask="url(#mask-2)"></path>
                    <path d="M26.2025012,20.5055318 C28.0167104,21.0087665 29.3581354,22.6498886 29.3581354,24.613145 C29.3581354,26.5764014 28.0167104,28.2175235 26.2025012,28.7191555 L26.2025012,43.3898894 L32.8455198,37.3334437 C32.5618493,36.7612947 32.3871595,36.1266421 32.3871595,35.4471149 C32.3871595,33.5175144 33.6853127,31.9020348 35.4514421,31.3683496 L35.4514421,14.304847 C32.4496632,13.3640866 29.2411413,13.287159 26.2025012,14.0596403 L26.2025012,20.5055318 Z" id="Fill-43" fill="#316AEA" mask="url(#mask-2)"></path>
                    <path d="M20.9598855,23.3815021 C21.3669607,22.0464878 22.4006753,20.9951439 23.729279,20.5624262 L23.729279,14.8938239 C21.8269236,15.709577 20.0415623,16.8763122 18.4885864,18.4228774 C17.0061275,19.897323 15.8762534,21.5865248 15.0637057,23.3815021 L20.9598855,23.3815021 Z" id="Fill-44" fill="#316AEA" mask="url(#mask-2)"></path>
                    <path d="M34.8607023,35.4474355 C34.8607023,35.928233 35.0530213,36.364156 35.3607317,36.6894956 C35.363937,36.692701 35.368745,36.6943036 35.3735529,36.6975089 C35.3783609,36.7055222 35.3799636,36.7135355 35.3863742,36.7199462 C35.7181245,37.0565044 36.1780874,37.2664526 36.6877327,37.2664526 C37.6942021,37.2664526 38.5147632,36.4506996 38.5147632,35.4474355 C38.5147632,34.4441714 37.6942021,33.6284183 36.6877327,33.6284183 C35.6796607,33.6284183 34.8607023,34.4441714 34.8607023,35.4474355" id="Fill-45" fill="#316AEA" mask="url(#mask-2)"></path>
                    <path d="M23.7289584,28.6629022 C22.4003547,28.2301845 21.3666401,27.1788406 20.9595649,25.8438263 L14.3854607,25.8438263 C14.3133411,25.8438263 14.2428241,25.8342103 14.1739098,25.8229917 C12.6273446,31.435501 14.0569157,37.6922789 18.4882659,42.1027945 C20.0412417,43.6493597 21.8266031,44.816095 23.7289584,45.631848 L23.7289584,28.6629022 Z" id="Fill-46" fill="#316AEA" mask="url(#mask-2)"></path>
                    <path d="M42.2776445,18.4228774 C40.9682727,17.1199162 39.4938271,16.0878043 37.9248246,15.3041044 L37.9248246,31.369151 C39.6909541,31.9012335 40.9875046,33.5183157 40.9875046,35.4479163 C40.9875046,37.3646956 39.705378,38.9737645 37.9568778,39.515463 L37.9568778,45.2065025 C39.513059,44.4244053 40.9778887,43.3971013 42.2776445,42.1021534 C48.8469408,35.5633077 48.8469408,24.9617232 42.2776445,18.4228774" id="Fill-47" fill="#316AEA" mask="url(#mask-2)"></path>
                    <path d="M35.4831748,46.1865281 L35.4831748,39.5354962 C35.1482192,39.4377341 34.8308928,39.3031108 34.5344011,39.1316263 L26.4297582,46.519881 C29.4347424,47.2410772 32.5935819,47.1336991 35.5488837,46.1865281 L35.4831748,46.1865281 Z" id="Fill-48" fill="#316AEA" mask="url(#mask-2)"></path>
                </g>
            </g>
        </g>
    </g>
</svg>