<?xml version="1.0" encoding="UTF-8"?><svg version="1.1" width="50px" height="50px" viewBox="0 0 50.0 50.0" xmlns="http://www.w3.org/2000/svg" xmlns:xlink="http://www.w3.org/1999/xlink"><defs><clipPath id="i0"><path d="M1440,0 L1440,2519 L0,2519 L0,0 L1440,0 Z"></path></clipPath><clipPath id="i1"><path d="M30.75,0 L32,7.875 C32.7916667,8.16666667 33.6354167,8.55208333 34.53125,9.03125 C35.4270833,9.51041667 36.1875,10.0416667 36.8125,10.625 L44.1875,7.25 L50,17.5 L43.25,22.3125 C43.3333333,22.7291667 43.3854167,23.1770833 43.40625,23.65625 C43.4270833,24.1354167 43.4375,24.5833333 43.4375,25 C43.4375,25.4166667 43.4270833,25.8541667 43.40625,26.3125 C43.3854167,26.7708333 43.3333333,27.2083333 43.25,27.625 L50,32.5 L44.1875,42.75 L36.8125,39.375 C36.1458333,39.9166667 35.3854167,40.4479167 34.53125,40.96875 C33.6770833,41.4895833 32.8333333,41.875 32,42.125 L30.75,50 L19.25,50 L18,42.125 C17.2083333,41.8333333 16.375,41.4375 15.5,40.9375 C14.625,40.4375 13.8541667,39.9166667 13.1875,39.375 L5.8125,42.75 L0,32.5 L6.75,27.5625 C6.66666667,27.1875 6.61458333,26.7604167 6.59375,26.28125 C6.57291667,25.8020833 6.5625,25.375 6.5625,25 C6.5625,24.625 6.57291667,24.1979167 6.59375,23.71875 C6.61458333,23.2395833 6.66666667,22.8125 6.75,22.4375 L0,17.5 L5.8125,7.25 L13.1875,10.625 C13.8541667,10.0833333 14.625,9.5625 15.5,9.0625 C16.375,8.5625 17.2083333,8.1875 18,7.9375 L19.25,0 L30.75,0 Z M27.75,3.75 L22.25,3.75 L21.375,10.75 C19.9583333,11.0416667 18.6354167,11.5416667 17.40625,12.25 C16.1770833,12.9583333 15.0833333,13.8333333 14.125,14.875 L7.5,12 L5,16.5 L10.875,20.8125 C10.7083333,21.5208333 10.5729167,22.21875 10.46875,22.90625 C10.3645833,23.59375 10.3125,24.2916667 10.3125,25 C10.3125,25.7083333 10.3645833,26.40625 10.46875,27.09375 C10.5729167,27.78125 10.7083333,28.4791667 10.875,29.1875 L5,33.5 L7.5,38 L14.125,35.125 C15.125,36.125 16.2395833,36.9791667 17.46875,37.6875 C18.6979167,38.3958333 20,38.9166667 21.375,39.25 L22.25,46.25 L27.75,46.25 L28.625,39.25 C30,38.9166667 31.3020833,38.3958333 32.53125,37.6875 C33.7604167,36.9791667 34.875,36.125 35.875,35.125 L42.5,38 L45,33.5 L39.125,29.1875 C39.2916667,28.4791667 39.4270833,27.78125 39.53125,27.09375 C39.6354167,26.40625 39.6875,25.7083333 39.6875,25 C39.6875,24.2916667 39.6458333,23.59375 39.5625,22.90625 C39.4791667,22.21875 39.3333333,21.5208333 39.125,20.8125 L45,16.5 L42.5,12 L35.875,14.875 C34.9166667,13.7916667 33.8333333,12.8854167 32.625,12.15625 C31.4166667,11.4270833 30.0833333,10.9583333 28.625,10.75 L27.75,3.75 Z M25,16.875 C27.25,16.875 29.1666667,17.6666667 30.75,19.25 C32.3333333,20.8333333 33.125,22.75 33.125,25 C33.125,27.25 32.3333333,29.1666667 30.75,30.75 C29.1666667,32.3333333 27.25,33.125 25,33.125 C22.75,33.125 20.8333333,32.3333333 19.25,30.75 C17.6666667,29.1666667 16.875,27.25 16.875,25 C16.875,22.75 17.6666667,20.8333333 19.25,19.25 C20.8333333,17.6666667 22.75,16.875 25,16.875 Z M25,20.625 C23.7916667,20.625 22.7604167,21.0520833 21.90625,21.90625 C21.0520833,22.7604167 20.625,23.7916667 20.625,25 C20.625,26.2083333 21.0520833,27.2395833 21.90625,28.09375 C22.7604167,28.9479167 23.7916667,29.375 25,29.375 C26.2083333,29.375 27.2395833,28.9479167 28.09375,28.09375 C28.9479167,27.2395833 29.375,26.2083333 29.375,25 C29.375,23.7916667 28.9479167,22.7604167 28.09375,21.90625 C27.2395833,21.0520833 26.2083333,20.625 25,20.625 Z"></path></clipPath></defs><g transform="translate(-295.0 -1878.0)"><g clip-path="url(#i0)"><g transform="translate(0.0 947.0)"><g transform="translate(135.0 890.0)"><g transform="translate(160.0 41.0)"><g clip-path="url(#i1)"><polygon points="0,0 50,0 50,50 0,50 0,0" stroke="none" fill="#00205C"></polygon></g></g></g></g></g></g></svg>