<svg width="198" height="66" viewBox="0 0 198 66" fill="none" xmlns="http://www.w3.org/2000/svg">
<path fill-rule="evenodd" clip-rule="evenodd" d="M41.4401 61.2951C53.8759 57.828 63 46.4175 63 32.876C63 16.5836 49.7924 3.37598 33.5 3.37598C26.5988 3.37598 20.251 5.74576 15.2261 9.71596C20.2878 12.848 33.0377 21.7802 38.2346 35.0612C43.5634 48.6793 42.1541 58.2064 41.4401 61.2951Z" fill="#6C9C00"/>
<path fill-rule="evenodd" clip-rule="evenodd" d="M9.46921 15.7615C6.02578 20.5878 4.00004 26.4953 4.00004 32.876C4.00004 47.5564 14.7233 59.7322 28.7644 61.9979C28.7291 61.5515 27.8141 50.4542 23.3605 42.3505C21.8699 39.6383 19.9585 38.0449 18.1141 36.5074C15.9196 34.6782 13.8202 32.9281 12.6374 29.467C11.843 27.1425 12.3532 25.3255 12.8372 23.6018C13.3371 21.8212 13.8579 19.6229 12.7862 18.102C11.6482 16.4871 9.61411 15.8268 9.46921 15.7615Z" fill="#35C3E7"/>
<path d="M38.7015 61.9189C39.4185 58.1619 40.2368 49.0807 35.321 36.5179C30.3565 23.831 18.4995 15.1124 13.0364 11.6276C11.7247 12.8912 10.5297 14.2751 9.46919 15.7615C9.48161 15.7671 9.50791 15.7771 9.54633 15.7916C9.9562 15.947 11.7457 16.6255 12.7862 18.102C13.8579 19.6229 13.3371 21.8211 12.8371 23.6018C12.3532 25.3255 11.843 27.1425 12.6374 29.467C13.8201 32.9281 15.9196 34.6782 18.114 36.5074C19.9584 38.0449 21.8699 39.6382 23.3605 42.3505C27.8141 50.4542 28.7291 61.5515 28.7643 61.9979C30.3062 62.2467 31.888 62.376 33.5 62.376C35.2748 62.376 37.013 62.2192 38.7015 61.9189Z" fill="#1595C2"/>
<path fill-rule="evenodd" clip-rule="evenodd" d="M52.4138 55.5158C58.8843 50.1044 63 41.9708 63 32.876C63 16.5836 49.7924 3.37598 33.5 3.37598C31.8864 3.37598 30.303 3.50554 28.7597 3.75482C28.6348 4.07681 26.5288 9.62918 28.7655 12.4809C30.5958 14.8145 33.3383 14.8008 36.0618 14.7872C38.8318 14.7733 41.5822 14.7596 43.3334 17.2155C45.0033 19.5573 44.673 21.8469 44.3234 24.2704C44.0485 26.1761 43.7617 28.1646 44.426 30.3266C45.4171 33.5518 47.6369 35.5207 49.7903 37.4308C52.2699 39.6301 54.6614 41.7515 54.9877 45.6229C55.4226 50.7818 52.4384 55.4562 52.4384 55.4562L52.4138 55.5158Z" fill="#81B13E"/>
<path fill-rule="evenodd" clip-rule="evenodd" d="M41.44 61.2951C53.8759 57.828 63 46.4175 63 32.876C63 16.5836 49.7924 3.37598 33.5 3.37598C26.5988 3.37598 20.251 5.74576 15.2261 9.71596C20.2878 12.848 33.0377 21.7802 38.2346 35.0612C43.5634 48.6793 42.1541 58.2064 41.44 61.2951Z" fill="#6C9C00"/>
<path fill-rule="evenodd" clip-rule="evenodd" d="M52.4138 55.5158C58.8843 50.1044 63 41.9708 63 32.876C63 16.5836 49.7924 3.37598 33.5 3.37598C31.8864 3.37598 30.303 3.50554 28.7597 3.75482C28.6347 4.07681 26.5288 9.62918 28.7655 12.4809C30.5958 14.8145 33.3383 14.8008 36.0618 14.7872C38.8318 14.7733 41.5822 14.7596 43.3334 17.2155C45.0033 19.5573 44.673 21.8469 44.3234 24.2704C44.0485 26.1761 43.7617 28.1646 44.426 30.3266C45.4171 33.5518 47.6368 35.5207 49.7902 37.4308C52.2698 39.6301 54.6614 41.7515 54.9877 45.6229C55.4225 50.7818 52.4383 55.4562 52.4383 55.4562L52.4138 55.5158Z" fill="#81B13E"/>
<path d="M104.071 51.8084C104.489 51.0767 105.101 50.4794 105.907 50.0165C106.714 49.5536 107.632 49.3221 108.662 49.3221C109.767 49.3221 110.76 49.5834 111.641 50.1061C112.522 50.6287 113.217 51.3679 113.725 52.3236C114.232 53.2643 114.486 54.3619 114.486 55.6162C114.486 56.8556 114.232 57.9607 113.725 58.9313C113.217 59.9019 112.515 60.656 111.619 61.1936C110.738 61.7312 109.752 62 108.662 62C107.602 62 106.669 61.7685 105.863 61.3056C105.071 60.8427 104.474 60.2528 104.071 59.5361V61.7984H102.032V45.2231H104.071V51.8084ZM112.403 55.6162C112.403 54.6904 112.216 53.884 111.843 53.1971C111.47 52.5102 110.962 51.9876 110.32 51.6292C109.693 51.2708 108.998 51.0916 108.237 51.0916C107.49 51.0916 106.796 51.2783 106.154 51.6516C105.527 52.01 105.019 52.5401 104.631 53.2419C104.257 53.9288 104.071 54.7277 104.071 55.6386C104.071 56.5645 104.257 57.3783 104.631 58.0801C105.019 58.767 105.527 59.2971 106.154 59.6705C106.796 60.0288 107.49 60.208 108.237 60.208C108.998 60.208 109.693 60.0288 110.32 59.6705C110.962 59.2971 111.47 58.767 111.843 58.0801C112.216 57.3783 112.403 56.557 112.403 55.6162Z" fill="#092861"/>
<path d="M86.1339 55.6163C86.1339 54.3619 86.3877 53.2644 86.8954 52.3236C87.4031 51.3679 88.0975 50.6288 88.9785 50.1061C89.8745 49.5835 90.8675 49.3221 91.9576 49.3221C93.0327 49.3221 93.966 49.5536 94.7575 50.0165C95.5489 50.4794 96.1387 51.0618 96.527 51.7636V49.5237H98.5877V61.7984H96.527V59.5137C96.1238 60.2305 95.519 60.8278 94.7127 61.3056C93.9212 61.7685 92.9954 62 91.9352 62C90.8451 62 89.8596 61.7312 88.9785 61.1936C88.0975 60.6561 87.4031 59.9019 86.8954 58.9313C86.3877 57.9607 86.1339 56.8557 86.1339 55.6163ZM96.527 55.6387C96.527 54.7128 96.3403 53.9065 95.967 53.2196C95.5937 52.5327 95.086 52.01 94.4439 51.6516C93.8167 51.2783 93.1223 51.0917 92.3608 51.0917C91.5992 51.0917 90.9048 51.2709 90.2777 51.6292C89.6505 51.9876 89.1503 52.5103 88.7769 53.1972C88.4036 53.8841 88.217 54.6904 88.217 55.6163C88.217 56.557 88.4036 57.3783 88.7769 58.0802C89.1503 58.7671 89.6505 59.2972 90.2777 59.6705C90.9048 60.0289 91.5992 60.2081 92.3608 60.2081C93.1223 60.2081 93.8167 60.0289 94.4439 59.6705C95.086 59.2972 95.5937 58.7671 95.967 58.0802C96.3403 57.3783 96.527 56.5645 96.527 55.6387Z" fill="#092861"/>
<path d="M79.7152 58.8417H84.7325V61.7984H75.8849V46.0743H79.7152V58.8417Z" fill="#092861"/>
<path d="M197.709 33.7655C197.709 34.1538 197.687 34.5644 197.642 34.9975H187.831C187.906 36.207 188.317 37.1553 189.063 37.8422C189.825 38.5141 190.743 38.8501 191.818 38.8501C192.699 38.8501 193.431 38.6485 194.013 38.2454C194.611 37.8272 195.029 37.2747 195.268 36.5878H197.463C197.134 37.7675 196.477 38.7307 195.492 39.4773C194.506 40.209 193.282 40.5749 191.818 40.5749C190.654 40.5749 189.608 40.3135 188.683 39.7909C187.772 39.2682 187.055 38.5291 186.532 37.5734C186.01 36.6028 185.748 35.4828 185.748 34.2135C185.748 32.9442 186.002 31.8318 186.51 30.8761C187.018 29.9204 187.727 29.1887 188.638 28.681C189.564 28.1583 190.624 27.897 191.818 27.897C192.983 27.897 194.014 28.1509 194.909 28.6586C195.805 29.1663 196.492 29.8681 196.97 30.7641C197.463 31.6451 197.709 32.6456 197.709 33.7655ZM195.604 33.34C195.604 32.5635 195.432 31.899 195.089 31.3465C194.745 30.779 194.275 30.3534 193.678 30.0697C193.095 29.7711 192.446 29.6217 191.729 29.6217C190.698 29.6217 189.817 29.9502 189.086 30.6073C188.369 31.2643 187.958 32.1752 187.854 33.34H195.604Z" fill="#092861"/>
<path d="M172.143 34.2135C172.143 32.9442 172.396 31.8392 172.904 30.8985C173.412 29.9428 174.114 29.2036 175.01 28.681C175.921 28.1583 176.958 27.897 178.123 27.897C179.631 27.897 180.871 28.2629 181.841 28.9946C182.827 29.7263 183.477 30.7417 183.79 32.0408H181.595C181.386 31.2942 180.975 30.7043 180.363 30.2713C179.766 29.8383 179.019 29.6217 178.123 29.6217C176.958 29.6217 176.018 30.0249 175.301 30.8313C174.584 31.6227 174.226 32.7501 174.226 34.2135C174.226 35.6919 174.584 36.8342 175.301 37.6406C176.018 38.4469 176.958 38.8501 178.123 38.8501C179.019 38.8501 179.766 38.6411 180.363 38.223C180.96 37.8048 181.371 37.2075 181.595 36.431H183.79C183.462 37.6854 182.805 38.6933 181.819 39.4549C180.833 40.2015 179.601 40.5749 178.123 40.5749C176.958 40.5749 175.921 40.3135 175.01 39.7909C174.114 39.2682 173.412 38.5291 172.904 37.5734C172.396 36.6177 172.143 35.4977 172.143 34.2135Z" fill="#092861"/>
<path d="M157.006 34.1911C157.006 32.9368 157.26 31.8392 157.767 30.8985C158.275 29.9428 158.969 29.2036 159.85 28.681C160.746 28.1583 161.739 27.897 162.83 27.897C163.905 27.897 164.838 28.1285 165.629 28.5914C166.421 29.0543 167.011 29.6367 167.399 30.3385V28.0986H169.46V40.3733H167.399V38.0886C166.996 38.8053 166.391 39.4026 165.585 39.8805C164.793 40.3434 163.867 40.5749 162.807 40.5749C161.717 40.5749 160.731 40.3061 159.85 39.7685C158.969 39.2309 158.275 38.4768 157.767 37.5062C157.26 36.5356 157.006 35.4305 157.006 34.1911ZM167.399 34.2135C167.399 33.2877 167.212 32.4813 166.839 31.7944C166.466 31.1075 165.958 30.5849 165.316 30.2265C164.689 29.8532 163.994 29.6665 163.233 29.6665C162.471 29.6665 161.777 29.8457 161.15 30.2041C160.522 30.5625 160.022 31.0851 159.649 31.772C159.276 32.4589 159.089 33.2653 159.089 34.1911C159.089 35.1319 159.276 35.9532 159.649 36.655C160.022 37.3419 160.522 37.872 161.15 38.2454C161.777 38.6037 162.471 38.7829 163.233 38.7829C163.994 38.7829 164.689 38.6037 165.316 38.2454C165.958 37.872 166.466 37.3419 166.839 36.655C167.212 35.9532 167.399 35.1394 167.399 34.2135Z" fill="#092861"/>
<path d="M144.669 30.3609C145.072 29.6591 145.669 29.0767 146.461 28.6138C147.267 28.1359 148.2 27.897 149.261 27.897C150.351 27.897 151.336 28.1583 152.217 28.681C153.113 29.2036 153.815 29.9428 154.323 30.8985C154.83 31.8392 155.084 32.9368 155.084 34.1911C155.084 35.4305 154.83 36.5356 154.323 37.5062C153.815 38.4768 153.113 39.2309 152.217 39.7685C151.336 40.3061 150.351 40.5749 149.261 40.5749C148.215 40.5749 147.289 40.3434 146.483 39.8805C145.692 39.4026 145.087 38.8128 144.669 38.111V46.197H142.63V28.0986H144.669V30.3609ZM153.001 34.1911C153.001 33.2653 152.815 32.4589 152.441 31.772C152.068 31.0851 151.56 30.5625 150.918 30.2041C150.291 29.8457 149.597 29.6665 148.835 29.6665C148.088 29.6665 147.394 29.8532 146.752 30.2265C146.125 30.5849 145.617 31.115 145.229 31.8168C144.855 32.5037 144.669 33.3026 144.669 34.2135C144.669 35.1394 144.855 35.9532 145.229 36.655C145.617 37.3419 146.125 37.872 146.752 38.2454C147.394 38.6037 148.088 38.7829 148.835 38.7829C149.597 38.7829 150.291 38.6037 150.918 38.2454C151.56 37.872 152.068 37.3419 152.441 36.655C152.815 35.9532 153.001 35.1319 153.001 34.1911Z" fill="#092861"/>
<path d="M135.273 40.5749C134.333 40.5749 133.489 40.4181 132.742 40.1045C131.996 39.776 131.406 39.328 130.973 38.7605C130.54 38.1782 130.301 37.5137 130.256 36.767H132.361C132.421 37.3793 132.705 37.8795 133.213 38.2678C133.735 38.656 134.415 38.8501 135.251 38.8501C136.027 38.8501 136.64 38.6784 137.088 38.3349C137.536 37.9915 137.76 37.5584 137.76 37.0358C137.76 36.4982 137.521 36.1025 137.043 35.8487C136.565 35.5799 135.826 35.3185 134.825 35.0647C133.914 34.8258 133.168 34.5868 132.585 34.3479C132.018 34.0941 131.525 33.7282 131.107 33.2504C130.704 32.7576 130.502 32.1155 130.502 31.3241C130.502 30.6969 130.689 30.122 131.062 29.5993C131.436 29.0767 131.966 28.666 132.653 28.3674C133.34 28.0538 134.123 27.897 135.005 27.897C136.363 27.897 137.461 28.2405 138.297 28.9274C139.133 29.6143 139.581 30.555 139.641 31.7496H137.603C137.558 31.1075 137.297 30.5924 136.819 30.2041C136.356 29.8159 135.729 29.6217 134.937 29.6217C134.206 29.6217 133.623 29.7785 133.19 30.0921C132.757 30.4057 132.541 30.8163 132.541 31.3241C132.541 31.7272 132.668 32.0632 132.921 32.332C133.19 32.5859 133.519 32.7949 133.907 32.9592C134.31 33.1085 134.863 33.2802 135.564 33.4744C136.446 33.7133 137.162 33.9522 137.715 34.1911C138.267 34.4151 138.738 34.7586 139.126 35.2215C139.529 35.6844 139.738 36.2892 139.753 37.0358C139.753 37.7078 139.566 38.3125 139.193 38.8501C138.82 39.3877 138.29 39.8133 137.603 40.1269C136.931 40.4255 136.154 40.5749 135.273 40.5749Z" fill="#092861"/>
<path d="M115.029 34.1911C115.029 32.9368 115.283 31.8392 115.791 30.8985C116.299 29.9428 116.993 29.2036 117.874 28.681C118.77 28.1583 119.763 27.897 120.853 27.897C121.928 27.897 122.862 28.1285 123.653 28.5914C124.445 29.0543 125.034 29.6367 125.423 30.3385V28.0986H127.483V40.3733H125.423V38.0886C125.019 38.8053 124.415 39.4026 123.608 39.8805C122.817 40.3434 121.891 40.5749 120.831 40.5749C119.741 40.5749 118.755 40.3061 117.874 39.7685C116.993 39.2309 116.299 38.4768 115.791 37.5062C115.283 36.5356 115.029 35.4305 115.029 34.1911ZM125.423 34.2135C125.423 33.2877 125.236 32.4813 124.863 31.7944C124.489 31.1075 123.982 30.5849 123.34 30.2265C122.712 29.8532 122.018 29.6665 121.256 29.6665C120.495 29.6665 119.8 29.8457 119.173 30.2041C118.546 30.5625 118.046 31.0851 117.673 31.772C117.299 32.4589 117.113 33.2653 117.113 34.1911C117.113 35.1319 117.299 35.9532 117.673 36.655C118.046 37.3419 118.546 37.872 119.173 38.2454C119.8 38.6037 120.495 38.7829 121.256 38.7829C122.018 38.7829 122.712 38.6037 123.34 38.2454C123.982 37.872 124.489 37.3419 124.863 36.655C125.236 35.9532 125.423 35.1394 125.423 34.2135Z" fill="#092861"/>
<path d="M110.118 29.7785V37.0134C110.118 37.6107 110.245 38.0363 110.499 38.2902C110.753 38.5291 111.193 38.6485 111.821 38.6485H113.321V40.3733H111.485C110.35 40.3733 109.499 40.1119 108.931 39.5893C108.364 39.0667 108.08 38.208 108.08 37.0134V29.7785H106.49V28.0986H108.08V25.0075H110.118V28.0986H113.321V29.7785H110.118Z" fill="#092861"/>
<path d="M91.7336 34.1911C91.7336 32.9368 91.9875 31.8392 92.4952 30.8985C93.0029 29.9428 93.6973 29.2036 94.5783 28.681C95.4742 28.1583 96.4673 27.897 97.5574 27.897C98.6325 27.897 99.5658 28.1285 100.357 28.5914C101.149 29.0543 101.739 29.6367 102.127 30.3385V28.0986H104.187V40.3733H102.127V38.0886C101.724 38.8053 101.119 39.4026 100.312 39.8805C99.521 40.3434 98.5952 40.5749 97.535 40.5749C96.4449 40.5749 95.4593 40.3061 94.5783 39.7685C93.6973 39.2309 93.0029 38.4768 92.4952 37.5062C91.9875 36.5356 91.7336 35.4305 91.7336 34.1911ZM102.127 34.2135C102.127 33.2877 101.94 32.4813 101.567 31.7944C101.193 31.1075 100.686 30.5849 100.044 30.2265C99.4165 29.8532 98.7221 29.6665 97.9605 29.6665C97.199 29.6665 96.5046 29.8457 95.8774 30.2041C95.2503 30.5625 94.75 31.0851 94.3767 31.772C94.0034 32.4589 93.8167 33.2653 93.8167 34.1911C93.8167 35.1319 94.0034 35.9532 94.3767 36.655C94.75 37.3419 95.2503 37.872 95.8774 38.2454C96.5046 38.6037 97.199 38.7829 97.9605 38.7829C98.7221 38.7829 99.4165 38.6037 100.044 38.2454C100.686 37.872 101.193 37.3419 101.567 36.655C101.94 35.9532 102.127 35.1394 102.127 34.2135Z" fill="#092861"/>
<path d="M81.7759 24.6492C83.4334 24.6492 84.8819 24.9777 86.1213 25.6347C87.3607 26.2918 88.3164 27.2176 88.9883 28.4122C89.6752 29.5919 90.0187 30.9582 90.0187 32.5112C90.0187 34.0493 89.6752 35.4156 88.9883 36.6102C88.3164 37.8049 87.3532 38.7307 86.0989 39.3877C84.8595 40.0448 83.4185 40.3733 81.7759 40.3733H75.8849V24.6492H81.7759ZM81.5295 37.0582C82.9779 37.0582 84.1054 36.6625 84.9117 35.8711C85.7181 35.0796 86.1213 33.9597 86.1213 32.5112C86.1213 31.0628 85.7181 29.9353 84.9117 29.129C84.1054 28.3226 82.9779 27.9194 81.5295 27.9194H79.7152V37.0582H81.5295Z" fill="#092861"/>
<path d="M128.837 6.44943C130.33 6.44943 131.54 6.90488 132.466 7.81577C133.391 8.71173 133.854 10.0109 133.854 11.7132V18.9481H131.838V12.0044C131.838 10.7799 131.532 9.84662 130.92 9.20451C130.308 8.54747 129.472 8.21896 128.411 8.21896C127.336 8.21896 126.478 8.55494 125.835 9.22691C125.208 9.89888 124.895 10.877 124.895 12.1612V18.9481H122.856V6.67342H124.895V8.42055C125.298 7.79337 125.843 7.30806 126.53 6.96461C127.232 6.62116 128.001 6.44943 128.837 6.44943Z" fill="#092861"/>
<path d="M120.166 12.3404C120.166 12.7287 120.143 13.1393 120.099 13.5724H110.288C110.363 14.7819 110.773 15.7301 111.52 16.417C112.281 17.089 113.2 17.425 114.275 17.425C115.156 17.425 115.888 17.2234 116.47 16.8202C117.067 16.4021 117.485 15.8496 117.724 15.1627H119.919C119.591 16.3424 118.934 17.3055 117.948 18.0522C116.963 18.7839 115.738 19.1497 114.275 19.1497C113.11 19.1497 112.065 18.8884 111.139 18.3657C110.228 17.8431 109.511 17.1039 108.989 16.1482C108.466 15.1776 108.205 14.0577 108.205 12.7884C108.205 11.5191 108.459 10.4066 108.966 9.45093C109.474 8.49524 110.183 7.76354 111.094 7.25583C112.02 6.73318 113.08 6.47186 114.275 6.47186C115.44 6.47186 116.47 6.72572 117.366 7.23343C118.262 7.74114 118.949 8.44298 119.427 9.33894C119.919 10.22 120.166 11.2205 120.166 12.3404ZM118.06 11.9148C118.06 11.1383 117.889 10.4738 117.545 9.92131C117.202 9.35387 116.731 8.92829 116.134 8.64457C115.552 8.34591 114.902 8.19659 114.185 8.19659C113.155 8.19659 112.274 8.52511 111.542 9.18214C110.825 9.83918 110.415 10.7501 110.31 11.9148H118.06Z" fill="#092861"/>
<path d="M95.8678 8.93576C96.271 8.23392 96.8683 7.65154 97.6597 7.18863C98.4661 6.71079 99.3994 6.47186 100.46 6.47186C101.55 6.47186 102.535 6.73318 103.416 7.25583C104.312 7.77847 105.014 8.51764 105.522 9.47333C106.029 10.4141 106.283 11.5116 106.283 12.766C106.283 14.0054 106.029 15.1104 105.522 16.081C105.014 17.0517 104.312 17.8058 103.416 18.3433C102.535 18.8809 101.55 19.1497 100.46 19.1497C99.4143 19.1497 98.4885 18.9183 97.6821 18.4553C96.8907 17.9775 96.2859 17.3877 95.8678 16.6858V24.7719H93.8295V6.67345H95.8678V8.93576ZM104.2 12.766C104.2 11.8402 104.014 11.0338 103.64 10.3469C103.267 9.65999 102.759 9.13735 102.117 8.77896C101.49 8.42058 100.796 8.24139 100.034 8.24139C99.2874 8.24139 98.593 8.42804 97.9509 8.80136C97.3237 9.15975 96.816 9.68986 96.4278 10.3917C96.0545 11.0786 95.8678 11.8775 95.8678 12.7884C95.8678 13.7142 96.0545 14.528 96.4278 15.2299C96.816 15.9168 97.3237 16.4469 97.9509 16.8202C98.593 17.1786 99.2874 17.3578 100.034 17.3578C100.796 17.3578 101.49 17.1786 102.117 16.8202C102.759 16.4469 103.267 15.9168 103.64 15.2299C104.014 14.528 104.2 13.7067 104.2 12.766Z" fill="#092861"/>
<path d="M83.3214 19.1049C81.8431 19.1049 80.4842 18.7614 79.2448 18.0745C78.0203 17.3876 77.0422 16.4319 76.3105 15.2075C75.5937 13.9681 75.2354 12.5793 75.2354 11.0412C75.2354 9.50318 75.5937 8.12191 76.3105 6.89743C77.0422 5.67295 78.0203 4.71726 79.2448 4.03036C80.4842 3.34345 81.8431 3 83.3214 3C84.7997 3 86.1511 3.34345 87.3756 4.03036C88.615 4.71726 89.5857 5.67295 90.2875 6.89743C91.0043 8.12191 91.3626 9.50318 91.3626 11.0412C91.3626 12.5793 91.0043 13.9681 90.2875 15.2075C89.5707 16.4319 88.6001 17.3876 87.3756 18.0745C86.1511 18.7614 84.7997 19.1049 83.3214 19.1049ZM83.3214 15.6107C84.5757 15.6107 85.5762 15.1925 86.3229 14.3563C87.0844 13.5201 87.4652 12.4151 87.4652 11.0412C87.4652 9.65251 87.0844 8.54749 86.3229 7.72619C85.5762 6.88996 84.5757 6.47185 83.3214 6.47185C82.0521 6.47185 81.0367 6.8825 80.2751 7.70379C79.5285 8.52509 79.1552 9.63758 79.1552 11.0412C79.1552 12.43 79.5285 13.5425 80.2751 14.3787C81.0367 15.2 82.0521 15.6107 83.3214 15.6107Z" fill="#092861"/>
<path fill-rule="evenodd" clip-rule="evenodd" d="M22.5741 9.56733C22.5741 8.56163 23.3894 7.74635 24.3951 7.74635C24.4132 7.74635 24.4312 7.74661 24.4492 7.74714L25.1991 4.55993C25.4644 4.48228 25.7313 4.40826 25.9996 4.33792L25.1583 7.91353C25.7828 8.20221 26.216 8.83417 26.216 9.56733C26.216 10.3085 25.7732 10.9463 25.1377 11.2305L30.679 36.1662C30.7684 36.158 30.859 36.1538 30.9506 36.1538C31.468 36.1538 31.954 36.2886 32.3752 36.5252L46.6402 17.2079C46.1725 16.7457 45.8827 16.104 45.8827 15.3945C45.8827 14.3045 46.5668 13.3743 47.529 13.0097L46.0046 6.14959C46.286 6.2815 46.565 6.41772 46.8415 6.55817L48.2402 12.8522C48.3035 12.8475 48.3675 12.8451 48.4321 12.8451C49.1982 12.8451 49.8854 13.183 50.3527 13.718L53.8101 11.4808C53.9907 11.6523 54.1691 11.8261 54.3454 12.002L50.7489 14.3292C50.8982 14.6533 50.9815 15.0142 50.9815 15.3945C50.9815 16.5326 50.2357 17.4965 49.2062 17.8242L53.5399 43.8264C53.656 43.8103 53.7746 43.8019 53.8951 43.8019C54.1143 43.8019 54.3271 43.8296 54.5301 43.8816L62.967 31.4678C62.9775 31.6917 62.9855 31.9163 62.991 32.1415C62.9963 32.358 62.9993 32.575 62.9999 32.7927L55.2154 44.17C55.9522 44.6169 56.4444 45.4266 56.4444 46.3513C56.4444 47.6244 55.5112 48.6796 54.2915 48.87L54.882 53.2C54.6702 53.4226 54.4551 53.642 54.2366 53.858L53.5575 48.8785C52.3091 48.7134 51.3457 47.6448 51.3457 46.3513C51.3457 46.1342 51.3728 45.9235 51.4238 45.7223L33.6085 40.2628C33.1521 41.2757 32.1337 41.9809 30.9506 41.9809C29.669 41.9809 28.5807 41.1534 28.1907 40.0036L17.471 42.1963C17.4739 42.2455 17.4753 42.2951 17.4753 42.3451C17.4753 43.7531 16.3339 44.8945 14.9259 44.8945C14.7809 44.8945 14.6388 44.8824 14.5004 44.8591L11.7908 52.8502C11.6356 52.6816 11.4823 52.5112 11.331 52.339L13.8069 44.6364C12.9598 44.2219 12.3765 43.3516 12.3765 42.3451C12.3765 42.1645 12.3953 41.9883 12.431 41.8183L4.62743 38.9569C4.56938 38.6799 4.5152 38.4014 4.46498 38.1216L12.6818 41.1344C13.0223 40.5045 13.6203 40.0343 14.3347 39.8646L12.8699 23.7522C12.5336 23.6976 12.2359 23.5279 12.0185 23.2848L4.55823 27.1353C4.61915 26.8264 4.6849 26.5192 4.75539 26.2138L11.6842 22.6377C11.6606 22.5337 11.6481 22.4254 11.6481 22.3142C11.6481 21.928 11.7985 21.5769 12.0438 21.3162L8.98112 16.467C9.12822 16.2476 9.27818 16.0303 9.43096 15.8152L12.6594 20.9268C12.7998 20.8818 12.9495 20.8575 13.1049 20.8575C13.3436 20.8575 13.5689 20.9149 13.7677 21.0166L22.9394 10.6616C22.71 10.3569 22.5741 9.97801 22.5741 9.56733ZM52.8357 44.0317L48.4876 17.9433L48.4639 17.9437L48.442 17.9439L48.4321 17.9439C47.9957 17.9439 47.585 17.8342 47.2258 17.641L32.9608 36.9583C33.5174 37.4889 33.8642 38.2376 33.8642 39.0673C33.8642 39.2374 33.8496 39.4042 33.8216 39.5663L51.7044 45.0465C51.9688 44.6037 52.3635 44.2477 52.8357 44.0317ZM29.9678 36.3237C29.646 36.439 29.3504 36.6093 29.0922 36.8233L14.3828 23.0144C14.4968 22.8066 14.5617 22.568 14.5617 22.3142C14.5617 22.0125 14.47 21.7322 14.3129 21.4997L23.4845 11.1447C23.7523 11.2996 24.0633 11.3883 24.3951 11.3883C24.4056 11.3883 24.4161 11.3882 24.4265 11.3881L29.9678 36.3237ZM28.5936 37.3542C28.2436 37.835 28.037 38.4271 28.037 39.0673C28.037 39.1422 28.0399 39.2164 28.0454 39.2899L17.3257 41.4825C16.9865 40.5391 16.1068 39.8535 15.0601 39.7992L13.5953 23.6864C13.6974 23.65 13.7941 23.6025 13.8842 23.5453L28.5936 37.3542Z" fill="white"/>
</svg>
