<svg width="66" height="66" viewBox="0 0 66 66" fill="none" xmlns="http://www.w3.org/2000/svg">
<path fill-rule="evenodd" clip-rule="evenodd" d="M41.4401 61.2951C53.8759 57.828 63 46.4175 63 32.876C63 16.5836 49.7924 3.37598 33.5 3.37598C26.5988 3.37598 20.251 5.74576 15.2261 9.71596C20.2878 12.848 33.0377 21.7802 38.2346 35.0612C43.5634 48.6793 42.1541 58.2064 41.4401 61.2951Z" fill="#6C9C00"/>
<path fill-rule="evenodd" clip-rule="evenodd" d="M9.46921 15.7615C6.02578 20.5878 4.00004 26.4953 4.00004 32.876C4.00004 47.5564 14.7233 59.7322 28.7644 61.9979C28.7291 61.5515 27.8141 50.4542 23.3605 42.3505C21.8699 39.6383 19.9585 38.0449 18.1141 36.5074C15.9196 34.6782 13.8202 32.9281 12.6374 29.467C11.843 27.1425 12.3532 25.3255 12.8372 23.6018C13.3371 21.8212 13.8579 19.6229 12.7862 18.102C11.6482 16.4871 9.61411 15.8268 9.46921 15.7615Z" fill="#35C3E7"/>
<path d="M38.7015 61.9189C39.4185 58.1619 40.2368 49.0807 35.321 36.5179C30.3565 23.831 18.4995 15.1124 13.0364 11.6276C11.7247 12.8912 10.5297 14.2751 9.46919 15.7615C9.48161 15.7671 9.50791 15.7771 9.54633 15.7916C9.9562 15.947 11.7457 16.6255 12.7862 18.102C13.8579 19.6229 13.3371 21.8211 12.8371 23.6018C12.3532 25.3255 11.843 27.1425 12.6374 29.467C13.8201 32.9281 15.9196 34.6782 18.114 36.5074C19.9584 38.0449 21.8699 39.6382 23.3605 42.3505C27.8141 50.4542 28.7291 61.5515 28.7643 61.9979C30.3062 62.2467 31.888 62.376 33.5 62.376C35.2748 62.376 37.013 62.2192 38.7015 61.9189Z" fill="#1595C2"/>
<path fill-rule="evenodd" clip-rule="evenodd" d="M52.4138 55.5158C58.8843 50.1044 63 41.9708 63 32.876C63 16.5836 49.7924 3.37598 33.5 3.37598C31.8864 3.37598 30.303 3.50554 28.7597 3.75482C28.6348 4.07681 26.5288 9.62918 28.7655 12.4809C30.5958 14.8145 33.3383 14.8008 36.0618 14.7872C38.8318 14.7733 41.5822 14.7596 43.3334 17.2155C45.0033 19.5573 44.673 21.8469 44.3234 24.2704C44.0485 26.1761 43.7617 28.1646 44.426 30.3266C45.4171 33.5518 47.6369 35.5207 49.7903 37.4308C52.2699 39.6301 54.6614 41.7515 54.9877 45.6229C55.4226 50.7818 52.4384 55.4562 52.4384 55.4562L52.4138 55.5158Z" fill="#81B13E"/>
<path fill-rule="evenodd" clip-rule="evenodd" d="M41.44 61.2951C53.8759 57.828 63 46.4175 63 32.876C63 16.5836 49.7924 3.37598 33.5 3.37598C26.5988 3.37598 20.251 5.74576 15.2261 9.71596C20.2878 12.848 33.0377 21.7802 38.2346 35.0612C43.5634 48.6793 42.1541 58.2064 41.44 61.2951Z" fill="#6C9C00"/>
<path fill-rule="evenodd" clip-rule="evenodd" d="M52.4138 55.5158C58.8843 50.1044 63 41.9708 63 32.876C63 16.5836 49.7924 3.37598 33.5 3.37598C31.8864 3.37598 30.303 3.50554 28.7597 3.75482C28.6347 4.07681 26.5288 9.62918 28.7655 12.4809C30.5958 14.8145 33.3383 14.8008 36.0618 14.7872C38.8318 14.7733 41.5822 14.7596 43.3334 17.2155C45.0033 19.5573 44.673 21.8469 44.3234 24.2704C44.0485 26.1761 43.7617 28.1646 44.426 30.3266C45.4171 33.5518 47.6368 35.5207 49.7902 37.4308C52.2698 39.6301 54.6614 41.7515 54.9877 45.6229C55.4225 50.7818 52.4383 55.4562 52.4383 55.4562L52.4138 55.5158Z" fill="#81B13E"/>
<path fill-rule="evenodd" clip-rule="evenodd" d="M22.5741 9.56733C22.5741 8.56163 23.3894 7.74635 24.3951 7.74635C24.4132 7.74635 24.4312 7.74661 24.4492 7.74714L25.1991 4.55993C25.4644 4.48228 25.7313 4.40826 25.9996 4.33792L25.1583 7.91353C25.7828 8.20221 26.216 8.83417 26.216 9.56733C26.216 10.3085 25.7732 10.9463 25.1377 11.2305L30.679 36.1662C30.7684 36.158 30.859 36.1538 30.9506 36.1538C31.468 36.1538 31.954 36.2886 32.3752 36.5252L46.6402 17.2079C46.1725 16.7457 45.8827 16.104 45.8827 15.3945C45.8827 14.3045 46.5668 13.3743 47.529 13.0097L46.0046 6.14959C46.286 6.2815 46.565 6.41772 46.8415 6.55817L48.2402 12.8522C48.3035 12.8475 48.3675 12.8451 48.4321 12.8451C49.1982 12.8451 49.8854 13.183 50.3527 13.718L53.8101 11.4808C53.9907 11.6523 54.1691 11.8261 54.3454 12.002L50.7489 14.3292C50.8982 14.6533 50.9815 15.0142 50.9815 15.3945C50.9815 16.5326 50.2357 17.4965 49.2062 17.8242L53.5399 43.8264C53.656 43.8103 53.7746 43.8019 53.8951 43.8019C54.1143 43.8019 54.3271 43.8296 54.5301 43.8816L62.967 31.4678C62.9775 31.6917 62.9855 31.9163 62.991 32.1415C62.9963 32.358 62.9993 32.575 62.9999 32.7927L55.2154 44.17C55.9522 44.6169 56.4444 45.4266 56.4444 46.3513C56.4444 47.6244 55.5112 48.6796 54.2915 48.87L54.882 53.2C54.6702 53.4226 54.4551 53.642 54.2366 53.858L53.5575 48.8785C52.3091 48.7134 51.3457 47.6448 51.3457 46.3513C51.3457 46.1342 51.3728 45.9235 51.4238 45.7223L33.6085 40.2628C33.1521 41.2757 32.1337 41.9809 30.9506 41.9809C29.669 41.9809 28.5807 41.1534 28.1907 40.0036L17.471 42.1963C17.4739 42.2455 17.4753 42.2951 17.4753 42.3451C17.4753 43.7531 16.3339 44.8945 14.9259 44.8945C14.7809 44.8945 14.6388 44.8824 14.5004 44.8591L11.7908 52.8502C11.6356 52.6816 11.4823 52.5112 11.331 52.339L13.8069 44.6364C12.9598 44.2219 12.3765 43.3516 12.3765 42.3451C12.3765 42.1645 12.3953 41.9883 12.431 41.8183L4.62743 38.9569C4.56938 38.6799 4.5152 38.4014 4.46498 38.1216L12.6818 41.1344C13.0223 40.5045 13.6203 40.0343 14.3347 39.8646L12.8699 23.7522C12.5336 23.6976 12.2359 23.5279 12.0185 23.2848L4.55823 27.1353C4.61915 26.8264 4.6849 26.5192 4.75539 26.2138L11.6842 22.6377C11.6606 22.5337 11.6481 22.4254 11.6481 22.3142C11.6481 21.928 11.7985 21.5769 12.0438 21.3162L8.98112 16.467C9.12822 16.2476 9.27818 16.0303 9.43096 15.8152L12.6594 20.9268C12.7998 20.8818 12.9495 20.8575 13.1049 20.8575C13.3436 20.8575 13.5689 20.9149 13.7677 21.0166L22.9394 10.6616C22.71 10.3569 22.5741 9.97801 22.5741 9.56733ZM52.8357 44.0317L48.4876 17.9433L48.4639 17.9437L48.442 17.9439L48.4321 17.9439C47.9957 17.9439 47.585 17.8342 47.2258 17.641L32.9608 36.9583C33.5174 37.4889 33.8642 38.2376 33.8642 39.0673C33.8642 39.2374 33.8496 39.4042 33.8216 39.5663L51.7044 45.0465C51.9688 44.6037 52.3635 44.2477 52.8357 44.0317ZM29.9678 36.3237C29.646 36.439 29.3504 36.6093 29.0922 36.8233L14.3828 23.0144C14.4968 22.8066 14.5617 22.568 14.5617 22.3142C14.5617 22.0125 14.47 21.7322 14.3129 21.4997L23.4845 11.1447C23.7523 11.2996 24.0633 11.3883 24.3951 11.3883C24.4056 11.3883 24.4161 11.3882 24.4265 11.3881L29.9678 36.3237ZM28.5936 37.3542C28.2436 37.835 28.037 38.4271 28.037 39.0673C28.037 39.1422 28.0399 39.2164 28.0454 39.2899L17.3257 41.4825C16.9865 40.5391 16.1068 39.8535 15.0601 39.7992L13.5953 23.6864C13.6974 23.65 13.7941 23.6025 13.8842 23.5453L28.5936 37.3542Z" fill="white"/>
</svg>
