<svg width="198" height="66" viewBox="0 0 198 66" fill="none" xmlns="http://www.w3.org/2000/svg">
<path fill-rule="evenodd" clip-rule="evenodd" d="M40.7798 61.2589C53.2156 57.7917 62.3397 46.3813 62.3397 32.8397C62.3397 16.5473 49.1321 3.33972 32.8397 3.33972C25.9385 3.33972 19.5907 5.7095 14.5658 9.67971C19.6275 12.8117 32.3774 21.744 37.5743 35.0249C42.9031 48.6431 41.4938 58.1702 40.7798 61.2589Z" fill="#6C9C00"/>
<path fill-rule="evenodd" clip-rule="evenodd" d="M8.8089 15.7252C5.36547 20.5516 3.33973 26.4591 3.33973 32.8397C3.33973 47.5201 14.063 59.6959 28.1041 61.9616C28.0688 61.5153 27.1538 50.418 22.7002 42.3142C21.2096 39.602 19.2982 38.0086 17.4537 36.4712C15.2593 34.642 13.1599 32.8919 11.9771 29.4307C11.1827 27.1062 11.6929 25.2892 12.1769 23.5655C12.6768 21.7849 13.1976 19.5866 12.1259 18.0657C10.9879 16.4508 8.95381 15.7906 8.8089 15.7252Z" fill="#35C3E7"/>
<path d="M38.0412 61.8826C38.7582 58.1257 39.5765 49.0444 34.6607 36.4817C29.6962 23.7947 17.8392 15.0761 12.3761 11.5914C11.0644 12.8549 9.8694 14.2388 8.80888 15.7252C8.8213 15.7308 8.8476 15.7408 8.88602 15.7554C9.29589 15.9108 11.0854 16.5892 12.1259 18.0657C13.1976 19.5866 12.6768 21.7849 12.1768 23.5655C11.6929 25.2892 11.1827 27.1062 11.977 29.4307C13.1598 32.8919 15.2593 34.642 17.4537 36.4712C19.2981 38.0086 21.2096 39.602 22.7002 42.3142C27.1538 50.418 28.0688 61.5152 28.104 61.9616C29.6459 62.2104 31.2277 62.3397 32.8397 62.3397C34.6145 62.3397 36.3527 62.183 38.0412 61.8826Z" fill="#1595C2"/>
<path fill-rule="evenodd" clip-rule="evenodd" d="M51.7535 55.4795C58.224 50.0681 62.3397 41.9346 62.3397 32.8397C62.3397 16.5473 49.1321 3.33972 32.8397 3.33972C31.2261 3.33972 29.6427 3.46928 28.0994 3.71856C27.9745 4.04055 25.8685 9.59292 28.1052 12.4447C29.9355 14.7782 32.678 14.7645 35.4015 14.7509C38.1715 14.7371 40.9219 14.7233 42.6731 17.1792C44.343 19.5211 44.0127 21.8106 43.6631 24.2341C43.3882 26.1398 43.1014 28.1284 43.7657 30.2903C44.7568 33.5155 46.9765 35.4845 49.1299 37.3945C51.6095 39.5939 54.0011 41.7152 54.3274 45.5866C54.7622 50.7455 51.778 55.42 51.778 55.42L51.7535 55.4795Z" fill="#81B13E"/>
<path fill-rule="evenodd" clip-rule="evenodd" d="M40.7797 61.2589C53.2156 57.7917 62.3397 46.3813 62.3397 32.8397C62.3397 16.5473 49.1321 3.33972 32.8397 3.33972C25.9385 3.33972 19.5907 5.7095 14.5658 9.67971C19.6275 12.8117 32.3774 21.744 37.5743 35.0249C42.9031 48.6431 41.4938 58.1702 40.7797 61.2589Z" fill="#6C9C00"/>
<path fill-rule="evenodd" clip-rule="evenodd" d="M51.7535 55.4795C58.224 50.0681 62.3397 41.9346 62.3397 32.8397C62.3397 16.5473 49.1321 3.33972 32.8397 3.33972C31.2261 3.33972 29.6427 3.46928 28.0994 3.71856C27.9744 4.04055 25.8685 9.59292 28.1052 12.4447C29.9355 14.7782 32.678 14.7645 35.4015 14.7509C38.1715 14.7371 40.9219 14.7233 42.6731 17.1792C44.343 19.5211 44.0127 21.8106 43.6631 24.2341C43.3882 26.1398 43.1013 28.1284 43.7657 30.2903C44.7568 33.5155 46.9765 35.4845 49.1299 37.3945C51.6095 39.5939 54.0011 41.7152 54.3274 45.5866C54.7622 50.7455 51.778 55.42 51.778 55.42L51.7535 55.4795Z" fill="#81B13E"/>
<path d="M103.41 51.7721C103.828 51.0404 104.441 50.4431 105.247 49.9802C106.053 49.5173 106.972 49.2858 108.002 49.2858C109.107 49.2858 110.1 49.5472 110.981 50.0698C111.862 50.5925 112.557 51.3316 113.064 52.2873C113.572 53.2281 113.826 54.3256 113.826 55.58C113.826 56.8194 113.572 57.9244 113.064 58.895C112.557 59.8657 111.855 60.6198 110.959 61.1573C110.078 61.6949 109.092 61.9637 108.002 61.9637C106.942 61.9637 106.009 61.7322 105.202 61.2693C104.411 60.8064 103.813 60.2166 103.41 59.4998V61.7621H101.372V45.1868H103.41V51.7721ZM111.743 55.58C111.743 54.6541 111.556 53.8478 111.183 53.1609C110.809 52.474 110.302 51.9513 109.66 51.5929C109.032 51.2346 108.338 51.0554 107.577 51.0554C106.83 51.0554 106.136 51.242 105.493 51.6153C104.866 51.9737 104.359 52.5038 103.97 53.2057C103.597 53.8926 103.41 54.6915 103.41 55.6024C103.41 56.5282 103.597 57.342 103.97 58.0439C104.359 58.7308 104.866 59.2609 105.493 59.6342C106.136 59.9926 106.83 60.1718 107.577 60.1718C108.338 60.1718 109.032 59.9926 109.66 59.6342C110.302 59.2609 110.809 58.7308 111.183 58.0439C111.556 57.342 111.743 56.5207 111.743 55.58Z" fill="white"/>
<path d="M85.4735 55.58C85.4735 54.3257 85.7274 53.2281 86.2351 52.2874C86.7428 51.3317 87.4372 50.5925 88.3182 50.0699C89.2142 49.5472 90.2072 49.2859 91.2973 49.2859C92.3724 49.2859 93.3057 49.5173 94.0972 49.9803C94.8886 50.4432 95.4784 51.0255 95.8667 51.7274V49.4875H97.9274V61.7621H95.8667V59.4774C95.4635 60.1942 94.8587 60.7915 94.0524 61.2694C93.2609 61.7323 92.3351 61.9637 91.2749 61.9637C90.1848 61.9637 89.1992 61.6949 88.3182 61.1574C87.4372 60.6198 86.7428 59.8657 86.2351 58.8951C85.7274 57.9244 85.4735 56.8194 85.4735 55.58ZM95.8667 55.6024C95.8667 54.6766 95.68 53.8702 95.3067 53.1833C94.9334 52.4964 94.4257 51.9738 93.7836 51.6154C93.1564 51.2421 92.462 51.0554 91.7005 51.0554C90.9389 51.0554 90.2445 51.2346 89.6174 51.593C88.9902 51.9514 88.4899 52.474 88.1166 53.1609C87.7433 53.8478 87.5567 54.6542 87.5567 55.58C87.5567 56.5208 87.7433 57.3421 88.1166 58.0439C88.4899 58.7308 88.9902 59.2609 89.6174 59.6342C90.2445 59.9926 90.9389 60.1718 91.7005 60.1718C92.462 60.1718 93.1564 59.9926 93.7836 59.6342C94.4257 59.2609 94.9334 58.7308 95.3067 58.0439C95.68 57.3421 95.8667 56.5282 95.8667 55.6024Z" fill="white"/>
<path d="M79.0548 58.8055H84.0722V61.7621H75.2246V46.038H79.0548V58.8055Z" fill="white"/>
<path d="M197.049 33.7293C197.049 34.1175 197.027 34.5282 196.982 34.9612H187.171C187.246 36.1708 187.656 37.119 188.403 37.8059C189.165 38.4779 190.083 38.8138 191.158 38.8138C192.039 38.8138 192.771 38.6122 193.353 38.2091C193.95 37.791 194.369 37.2384 194.608 36.5515H196.803C196.474 37.7312 195.817 38.6944 194.832 39.441C193.846 40.1727 192.621 40.5386 191.158 40.5386C189.993 40.5386 188.948 40.2772 188.022 39.7546C187.111 39.232 186.395 38.4928 185.872 37.5371C185.349 36.5665 185.088 35.4465 185.088 34.1772C185.088 32.908 185.342 31.7955 185.85 30.8398C186.357 29.8841 187.067 29.1524 187.977 28.6447C188.903 28.122 189.963 27.8607 191.158 27.8607C192.323 27.8607 193.353 28.1146 194.249 28.6223C195.145 29.13 195.832 29.8318 196.31 30.7278C196.803 31.6088 197.049 32.6093 197.049 33.7293ZM194.944 33.3037C194.944 32.5272 194.772 31.8627 194.428 31.3102C194.085 30.7427 193.615 30.3171 193.017 30.0334C192.435 29.7348 191.785 29.5854 191.068 29.5854C190.038 29.5854 189.157 29.914 188.425 30.571C187.709 31.228 187.298 32.1389 187.193 33.3037H194.944Z" fill="white"/>
<path d="M171.482 34.1772C171.482 32.908 171.736 31.8029 172.244 30.8622C172.752 29.9065 173.453 29.1673 174.349 28.6447C175.26 28.122 176.298 27.8607 177.463 27.8607C178.971 27.8607 180.21 28.2266 181.181 28.9583C182.167 29.69 182.816 30.7054 183.13 32.0045H180.935C180.726 31.2579 180.315 30.6681 179.703 30.235C179.105 29.802 178.359 29.5854 177.463 29.5854C176.298 29.5854 175.357 29.9886 174.641 30.795C173.924 31.5864 173.565 32.7138 173.565 34.1772C173.565 35.6556 173.924 36.7979 174.641 37.6043C175.357 38.4107 176.298 38.8138 177.463 38.8138C178.359 38.8138 179.105 38.6048 179.703 38.1867C180.3 37.7686 180.711 37.1712 180.935 36.3947H183.13C182.801 37.6491 182.144 38.657 181.159 39.4186C180.173 40.1652 178.941 40.5386 177.463 40.5386C176.298 40.5386 175.26 40.2772 174.349 39.7546C173.453 39.232 172.752 38.4928 172.244 37.5371C171.736 36.5814 171.482 35.4615 171.482 34.1772Z" fill="white"/>
<path d="M156.345 34.1548C156.345 32.9005 156.599 31.8029 157.107 30.8622C157.615 29.9065 158.309 29.1673 159.19 28.6447C160.086 28.122 161.079 27.8607 162.169 27.8607C163.244 27.8607 164.178 28.0922 164.969 28.5551C165.761 29.018 166.35 29.6004 166.739 30.3022V28.0623H168.799V40.337H166.739V38.0523C166.335 38.769 165.731 39.3663 164.924 39.8442C164.133 40.3071 163.207 40.5386 162.147 40.5386C161.057 40.5386 160.071 40.2698 159.19 39.7322C158.309 39.1946 157.615 38.4405 157.107 37.4699C156.599 36.4993 156.345 35.3943 156.345 34.1548ZM166.739 34.1772C166.739 33.2514 166.552 32.4451 166.179 31.7581C165.805 31.0712 165.298 30.5486 164.656 30.1902C164.028 29.8169 163.334 29.6302 162.572 29.6302C161.811 29.6302 161.116 29.8094 160.489 30.1678C159.862 30.5262 159.362 31.0488 158.989 31.7357C158.615 32.4227 158.429 33.229 158.429 34.1548C158.429 35.0956 158.615 35.9169 158.989 36.6187C159.362 37.3056 159.862 37.8357 160.489 38.2091C161.116 38.5674 161.811 38.7466 162.572 38.7466C163.334 38.7466 164.028 38.5674 164.656 38.2091C165.298 37.8357 165.805 37.3056 166.179 36.6187C166.552 35.9169 166.739 35.1031 166.739 34.1772Z" fill="white"/>
<path d="M144.009 30.3246C144.412 29.6228 145.009 29.0404 145.8 28.5775C146.607 28.0996 147.54 27.8607 148.6 27.8607C149.69 27.8607 150.676 28.122 151.557 28.6447C152.453 29.1673 153.155 29.9065 153.663 30.8622C154.17 31.8029 154.424 32.9005 154.424 34.1548C154.424 35.3943 154.17 36.4993 153.663 37.4699C153.155 38.4405 152.453 39.1946 151.557 39.7322C150.676 40.2698 149.69 40.5386 148.6 40.5386C147.555 40.5386 146.629 40.3071 145.823 39.8442C145.031 39.3663 144.427 38.7765 144.009 38.0747V46.1607H141.97V28.0623H144.009V30.3246ZM152.341 34.1548C152.341 33.229 152.154 32.4227 151.781 31.7357C151.408 31.0488 150.9 30.5262 150.258 30.1678C149.631 29.8094 148.936 29.6302 148.175 29.6302C147.428 29.6302 146.734 29.8169 146.092 30.1902C145.464 30.5486 144.957 31.0787 144.569 31.7805C144.195 32.4674 144.009 33.2663 144.009 34.1772C144.009 35.1031 144.195 35.9169 144.569 36.6187C144.957 37.3056 145.464 37.8357 146.092 38.2091C146.734 38.5674 147.428 38.7466 148.175 38.7466C148.936 38.7466 149.631 38.5674 150.258 38.2091C150.9 37.8357 151.408 37.3056 151.781 36.6187C152.154 35.9169 152.341 35.0956 152.341 34.1548Z" fill="white"/>
<path d="M134.613 40.5386C133.672 40.5386 132.829 40.3818 132.082 40.0682C131.335 39.7397 130.745 39.2917 130.312 38.7242C129.879 38.1419 129.64 37.4774 129.596 36.7307H131.701C131.761 37.343 132.045 37.8432 132.552 38.2315C133.075 38.6197 133.754 38.8138 134.591 38.8138C135.367 38.8138 135.979 38.6421 136.427 38.2987C136.875 37.9552 137.099 37.5222 137.099 36.9995C137.099 36.4619 136.86 36.0662 136.383 35.8124C135.905 35.5436 135.165 35.2823 134.165 35.0284C133.254 34.7895 132.507 34.5506 131.925 34.3116C131.358 34.0578 130.865 33.6919 130.447 33.2141C130.044 32.7213 129.842 32.0792 129.842 31.2878C129.842 30.6606 130.029 30.0857 130.402 29.563C130.775 29.0404 131.305 28.6298 131.992 28.3311C132.679 28.0175 133.463 27.8607 134.344 27.8607C135.703 27.8607 136.801 28.2042 137.637 28.8911C138.473 29.578 138.921 30.5187 138.981 31.7134H136.942C136.898 31.0712 136.636 30.5561 136.159 30.1678C135.696 29.7796 135.068 29.5854 134.277 29.5854C133.545 29.5854 132.963 29.7422 132.53 30.0558C132.097 30.3694 131.88 30.7801 131.88 31.2878C131.88 31.691 132.007 32.0269 132.261 32.2957C132.53 32.5496 132.858 32.7586 133.247 32.9229C133.65 33.0722 134.202 33.2439 134.904 33.4381C135.785 33.677 136.502 33.9159 137.054 34.1548C137.607 34.3788 138.077 34.7223 138.466 35.1852C138.869 35.6481 139.078 36.2529 139.093 36.9995C139.093 37.6715 138.906 38.2763 138.533 38.8138C138.16 39.3514 137.629 39.777 136.942 40.0906C136.271 40.3892 135.494 40.5386 134.613 40.5386Z" fill="white"/>
<path d="M114.369 34.1548C114.369 32.9005 114.623 31.8029 115.131 30.8622C115.638 29.9065 116.333 29.1673 117.214 28.6447C118.11 28.122 119.103 27.8607 120.193 27.8607C121.268 27.8607 122.201 28.0922 122.993 28.5551C123.784 29.018 124.374 29.6004 124.762 30.3022V28.0623H126.823V40.337H124.762V38.0523C124.359 38.769 123.754 39.3663 122.948 39.8442C122.157 40.3071 121.231 40.5386 120.171 40.5386C119.08 40.5386 118.095 40.2698 117.214 39.7322C116.333 39.1946 115.638 38.4405 115.131 37.4699C114.623 36.4993 114.369 35.3943 114.369 34.1548ZM124.762 34.1772C124.762 33.2514 124.576 32.4451 124.202 31.7581C123.829 31.0712 123.321 30.5486 122.679 30.1902C122.052 29.8169 121.358 29.6302 120.596 29.6302C119.835 29.6302 119.14 29.8094 118.513 30.1678C117.886 30.5262 117.386 31.0488 117.012 31.7357C116.639 32.4227 116.452 33.229 116.452 34.1548C116.452 35.0956 116.639 35.9169 117.012 36.6187C117.386 37.3056 117.886 37.8357 118.513 38.2091C119.14 38.5674 119.835 38.7466 120.596 38.7466C121.358 38.7466 122.052 38.5674 122.679 38.2091C123.321 37.8357 123.829 37.3056 124.202 36.6187C124.576 35.9169 124.762 35.1031 124.762 34.1772Z" fill="white"/>
<path d="M109.458 29.7422V36.9771C109.458 37.5744 109.585 38 109.839 38.2539C110.093 38.4928 110.533 38.6123 111.16 38.6123H112.661V40.337H110.824C109.689 40.337 108.838 40.0757 108.271 39.553C107.703 39.0304 107.42 38.1717 107.42 36.9771V29.7422H105.829V28.0623H107.42V24.9713H109.458V28.0623H112.661V29.7422H109.458Z" fill="white"/>
<path d="M91.0733 34.1548C91.0733 32.9005 91.3272 31.8029 91.8349 30.8622C92.3426 29.9065 93.037 29.1673 93.918 28.6447C94.8139 28.122 95.807 27.8607 96.897 27.8607C97.9722 27.8607 98.9055 28.0922 99.6969 28.5551C100.488 29.018 101.078 29.6004 101.466 30.3022V28.0623H103.527V40.337H101.466V38.0523C101.063 38.769 100.458 39.3663 99.6521 39.8442C98.8607 40.3071 97.9349 40.5386 96.8747 40.5386C95.7846 40.5386 94.799 40.2698 93.918 39.7322C93.037 39.1946 92.3426 38.4405 91.8349 37.4699C91.3272 36.4993 91.0733 35.3943 91.0733 34.1548ZM101.466 34.1772C101.466 33.2514 101.28 32.4451 100.906 31.7581C100.533 31.0712 100.025 30.5486 99.3833 30.1902C98.7562 29.8169 98.0618 29.6302 97.3002 29.6302C96.5387 29.6302 95.8443 29.8094 95.2171 30.1678C94.5899 30.5262 94.0897 31.0488 93.7164 31.7357C93.3431 32.4227 93.1564 33.229 93.1564 34.1548C93.1564 35.0956 93.3431 35.9169 93.7164 36.6187C94.0897 37.3056 94.5899 37.8357 95.2171 38.2091C95.8443 38.5674 96.5387 38.7466 97.3002 38.7466C98.0618 38.7466 98.7562 38.5674 99.3833 38.2091C100.025 37.8357 100.533 37.3056 100.906 36.6187C101.28 35.9169 101.466 35.1031 101.466 34.1772Z" fill="white"/>
<path d="M81.1156 24.6129C82.7731 24.6129 84.2216 24.9414 85.461 25.5985C86.7004 26.2555 87.6561 27.1813 88.328 28.3759C89.0149 29.5556 89.3584 30.922 89.3584 32.475C89.3584 34.013 89.0149 35.3794 88.328 36.574C87.6561 37.7686 86.6929 38.6944 85.4386 39.3515C84.1992 40.0085 82.7581 40.337 81.1156 40.337H75.2246V24.6129H81.1156ZM80.8692 37.022C82.3176 37.022 83.4451 36.6263 84.2514 35.8348C85.0578 35.0434 85.461 33.9234 85.461 32.475C85.461 31.0265 85.0578 29.8991 84.2514 29.0927C83.4451 28.2864 82.3176 27.8832 80.8692 27.8832H79.0548V37.022H80.8692Z" fill="white"/>
<path d="M128.177 6.41315C129.67 6.41315 130.879 6.86859 131.805 7.77949C132.731 8.67545 133.194 9.97459 133.194 11.6769V18.9118H131.178V11.9681C131.178 10.7436 130.872 9.81033 130.26 9.16823C129.647 8.51119 128.811 8.18267 127.751 8.18267C126.676 8.18267 125.817 8.51866 125.175 9.19063C124.548 9.8626 124.234 10.8407 124.234 12.1249V18.9118H122.196V6.63714H124.234V8.38426C124.638 7.75709 125.183 7.27178 125.87 6.92832C126.571 6.58487 127.34 6.41315 128.177 6.41315Z" fill="white"/>
<path d="M119.506 12.3042C119.506 12.6924 119.483 13.1031 119.438 13.5361H109.628C109.702 14.7456 110.113 15.6939 110.86 16.3808C111.621 17.0527 112.539 17.3887 113.615 17.3887C114.496 17.3887 115.227 17.1871 115.81 16.784C116.407 16.3658 116.825 15.8133 117.064 15.1264H119.259C118.931 16.3061 118.274 17.2693 117.288 18.0159C116.302 18.7476 115.078 19.1135 113.615 19.1135C112.45 19.1135 111.405 18.8521 110.479 18.3295C109.568 17.8068 108.851 17.0677 108.328 16.112C107.806 15.1414 107.544 14.0214 107.544 12.7521C107.544 11.4829 107.798 10.3704 108.306 9.41468C108.814 8.45899 109.523 7.72729 110.434 7.21957C111.36 6.69693 112.42 6.43561 113.615 6.43561C114.779 6.43561 115.81 6.68946 116.706 7.19718C117.602 7.70489 118.289 8.40672 118.766 9.30268C119.259 10.1837 119.506 11.1842 119.506 12.3042ZM117.4 11.8786C117.4 11.1021 117.228 10.4376 116.885 9.88506C116.541 9.31762 116.071 8.89203 115.474 8.60831C114.891 8.30966 114.242 8.16033 113.525 8.16033C112.495 8.16033 111.614 8.48885 110.882 9.14589C110.165 9.80293 109.755 10.7138 109.65 11.8786H117.4Z" fill="white"/>
<path d="M95.2075 8.8995C95.6107 8.19766 96.208 7.61529 96.9994 7.15238C97.8058 6.67453 98.7391 6.43561 99.7993 6.43561C100.889 6.43561 101.875 6.69693 102.756 7.21957C103.652 7.74222 104.354 8.48139 104.861 9.43708C105.369 10.3778 105.623 11.4754 105.623 12.7297C105.623 13.9691 105.369 15.0742 104.861 16.0448C104.354 17.0154 103.652 17.7695 102.756 18.3071C101.875 18.8447 100.889 19.1135 99.7993 19.1135C98.754 19.1135 97.8282 18.882 97.0218 18.4191C96.2304 17.9412 95.6256 17.3514 95.2075 16.6496V24.7356H93.1692V6.6372H95.2075V8.8995ZM103.54 12.7297C103.54 11.8039 103.353 10.9975 102.98 10.3106C102.607 9.62374 102.099 9.10109 101.457 8.74271C100.83 8.38432 100.135 8.20513 99.3737 8.20513C98.6271 8.20513 97.9327 8.39179 97.2906 8.76511C96.6634 9.12349 96.1557 9.6536 95.7675 10.3554C95.3942 11.0423 95.2075 11.8412 95.2075 12.7521C95.2075 13.678 95.3942 14.4918 95.7675 15.1936C96.1557 15.8805 96.6634 16.4106 97.2906 16.784C97.9327 17.1423 98.6271 17.3215 99.3737 17.3215C100.135 17.3215 100.83 17.1423 101.457 16.784C102.099 16.4106 102.607 15.8805 102.98 15.1936C103.353 14.4918 103.54 13.6705 103.54 12.7297Z" fill="white"/>
<path d="M82.6611 19.0686C81.1828 19.0686 79.8239 18.7252 78.5845 18.0383C77.36 17.3514 76.3819 16.3957 75.6502 15.1712C74.9334 13.9318 74.575 12.5431 74.575 11.005C74.575 9.46693 74.9334 8.08565 75.6502 6.86117C76.3819 5.6367 77.36 4.681 78.5845 3.9941C79.8239 3.3072 81.1828 2.96375 82.6611 2.96375C84.1394 2.96375 85.4908 3.3072 86.7153 3.9941C87.9547 4.681 88.9254 5.6367 89.6272 6.86117C90.344 8.08565 90.7023 9.46693 90.7023 11.005C90.7023 12.5431 90.344 13.9318 89.6272 15.1712C88.9104 16.3957 87.9398 17.3514 86.7153 18.0383C85.4908 18.7252 84.1394 19.0686 82.6611 19.0686ZM82.6611 15.5744C83.9154 15.5744 84.9159 15.1563 85.6626 14.3201C86.4241 13.4838 86.8049 12.3788 86.8049 11.005C86.8049 9.61626 86.4241 8.51124 85.6626 7.68994C84.9159 6.85371 83.9154 6.43559 82.6611 6.43559C81.3918 6.43559 80.3764 6.84624 79.6148 7.66754C78.8682 8.48884 78.4949 9.60132 78.4949 11.005C78.4949 12.3937 78.8682 13.5062 79.6148 14.3424C80.3764 15.1637 81.3918 15.5744 82.6611 15.5744Z" fill="white"/>
<path fill-rule="evenodd" clip-rule="evenodd" d="M21.9138 9.53108C21.9138 8.52538 22.729 7.71009 23.7348 7.71009C23.7529 7.71009 23.7709 7.71036 23.7889 7.71088L24.5388 4.52367C24.8041 4.44602 25.071 4.372 25.3393 4.30167L24.498 7.87728C25.1225 8.16596 25.5557 8.79792 25.5557 9.53108C25.5557 10.2723 25.1129 10.91 24.4774 11.1942L30.0187 36.13C30.1081 36.1217 30.1987 36.1175 30.2903 36.1175C30.8077 36.1175 31.2937 36.2524 31.7148 36.4889L45.9799 17.1716C45.5122 16.7095 45.2224 16.0677 45.2224 15.3582C45.2224 14.2682 45.9065 13.338 46.8687 12.9734L45.3442 6.11334C45.6257 6.24524 45.9047 6.38146 46.1812 6.52191L47.5799 12.816C47.6432 12.8113 47.7072 12.8089 47.7718 12.8089C48.5379 12.8089 49.2251 13.1468 49.6924 13.6817L53.1498 11.4446C53.3304 11.6161 53.5088 11.7898 53.6851 11.9658L50.0886 14.2929C50.2379 14.6171 50.3212 14.9779 50.3212 15.3582C50.3212 16.4963 49.5754 17.4602 48.5459 17.788L52.8796 43.7902C52.9957 43.774 53.1142 43.7656 53.2348 43.7656C53.454 43.7656 53.6668 43.7933 53.8698 43.8454L62.3067 31.4315C62.3172 31.6554 62.3252 31.88 62.3307 32.1052C62.336 32.3217 62.339 32.5388 62.3396 32.7564L54.5551 44.1337C55.2919 44.5807 55.7841 45.3904 55.7841 46.315C55.7841 47.5882 54.8509 48.6433 53.6312 48.8338L54.2217 53.1637C54.0099 53.3864 53.7948 53.6058 53.5763 53.8217L52.8972 48.8423C51.6488 48.6771 50.6854 47.6086 50.6854 46.315C50.6854 46.098 50.7125 45.8873 50.7635 45.6861L32.9481 40.2265C32.4918 41.2395 31.4734 41.9447 30.2903 41.9447C29.0087 41.9447 27.9204 41.1172 27.5304 39.9673L16.8107 42.16C16.8136 42.2093 16.815 42.2589 16.815 42.3089C16.815 43.7168 15.6736 44.8582 14.2656 44.8582C14.1206 44.8582 13.9784 44.8461 13.8401 44.8229L11.1305 52.814C10.9753 52.6454 10.822 52.475 10.6707 52.3027L13.1466 44.6001C12.2995 44.1857 11.7162 43.3154 11.7162 42.3089C11.7162 42.1282 11.735 41.952 11.7707 41.782L3.96712 38.9207C3.90907 38.6436 3.8549 38.3651 3.80467 38.0853L12.0215 41.0981C12.362 40.4683 12.96 39.998 13.6744 39.8284L12.2096 23.7159C11.8733 23.6614 11.5756 23.4917 11.3582 23.2486L3.89792 27.099C3.95884 26.7901 4.02459 26.483 4.09508 26.1776L11.0239 22.6014C11.0003 22.4974 10.9878 22.3892 10.9878 22.278C10.9878 21.8918 11.1381 21.5406 11.3835 21.2799L8.32081 16.4307C8.46791 16.2113 8.61787 15.9941 8.77065 15.7789L11.9991 20.8906C12.1395 20.8455 12.2892 20.8212 12.4446 20.8212C12.6833 20.8212 12.9086 20.8786 13.1074 20.9804L22.2791 10.6253C22.0497 10.3207 21.9138 9.94175 21.9138 9.53108ZM52.1754 43.9955L47.8273 17.907L47.8036 17.9074L47.7817 17.9076L47.7718 17.9076C47.3354 17.9076 46.9247 17.798 46.5655 17.6048L32.3005 36.922C32.8571 37.4527 33.2039 38.2014 33.2039 39.0311C33.2039 39.2012 33.1893 39.3679 33.1613 39.53L51.0441 45.0102C51.3084 44.5674 51.7032 44.2115 52.1754 43.9955ZM29.3075 36.2874C28.9857 36.4027 28.69 36.573 28.4319 36.787L13.7225 22.9781C13.8365 22.7703 13.9014 22.5317 13.9014 22.278C13.9014 21.9763 13.8097 21.6959 13.6526 21.4634L22.8242 11.1084C23.092 11.2634 23.403 11.3521 23.7348 11.3521C23.7453 11.3521 23.7558 11.352 23.7662 11.3518L29.3075 36.2874ZM27.9333 37.318C27.5833 37.7988 27.3767 38.3908 27.3767 39.0311C27.3767 39.1059 27.3796 39.1802 27.3851 39.2536L16.6654 41.4463C16.3262 40.5028 15.4465 39.8172 14.3998 39.7629L12.935 23.6502C13.037 23.6137 13.1338 23.5662 13.2239 23.5091L27.9333 37.318Z" fill="white"/>
</svg>
