<?xml version="1.0" encoding="UTF-8"?><svg version="1.1" width="50px" height="51px" viewBox="0 0 50.0 51.0" xmlns="http://www.w3.org/2000/svg" xmlns:xlink="http://www.w3.org/1999/xlink"><defs><clipPath id="i0"><path d="M1440,0 L1440,2519 L0,2519 L0,0 L1440,0 Z"></path></clipPath><clipPath id="i1"><path d="M15.0510204,41.7729592 C16.3265306,41.7729592 17.4107143,42.2193878 18.3035714,43.1122449 C19.1964286,44.005102 19.6428571,45.0892857 19.6428571,46.3647959 C19.6428571,47.6403061 19.1964286,48.7244898 18.3035714,49.6173469 C17.4107143,50.5102041 16.3265306,50.9566327 15.0510204,50.9566327 C13.7755102,50.9566327 12.6913265,50.5102041 11.7984694,49.6173469 C10.9056122,48.7244898 10.4591837,47.6403061 10.4591837,46.3647959 C10.4591837,45.0892857 10.9056122,44.005102 11.7984694,43.1122449 C12.6913265,42.2193878 13.7755102,41.7729592 15.0510204,41.7729592 Z M40.5612245,41.7729592 C41.8367347,41.7729592 42.9209184,42.2193878 43.8137755,43.1122449 C44.7066327,44.005102 45.1530612,45.0892857 45.1530612,46.3647959 C45.1530612,47.6403061 44.7066327,48.7244898 43.8137755,49.6173469 C42.9209184,50.5102041 41.8367347,50.9566327 40.5612245,50.9566327 C39.2857143,50.9566327 38.2015306,50.5102041 37.3086735,49.6173469 C36.4158163,48.7244898 35.9693878,47.6403061 35.9693878,46.3647959 C35.9693878,45.0892857 36.4158163,44.005102 37.3086735,43.1122449 C38.2015306,42.2193878 39.2857143,41.7729592 40.5612245,41.7729592 Z M7.46173469,0 L9.82142857,5.03826531 L47.3852041,5.03826531 C48.3630952,5.03826531 49.1071429,5.48469388 49.6173469,6.37755102 C50.127551,7.27040816 50.127551,8.16326531 49.6173469,9.05612245 L41.0076531,24.5535714 C40.539966,25.3613946 39.9340986,26.0097789 39.190051,26.4987245 C38.4460034,26.9876701 37.627551,27.2321429 36.7346939,27.2321429 L17.4107143,27.2321429 L13.8392857,33.8647959 L45.1530612,33.8647959 L45.1530612,37.6913265 L14.4132653,37.6913265 C12.627551,37.6913265 11.3414116,37.0960884 10.5548469,35.9056122 C9.76828231,34.7151361 9.77891156,33.3758503 10.5867347,31.8877551 L14.6683673,24.3622449 L4.9744898,3.82653061 L0,3.82653061 L0,0 L7.46173469,0 Z M45.0892857,8.86479592 L11.7346939,8.86479592 L18.75,23.4056122 L37.1173469,23.4056122 L45.0892857,8.86479592 Z"></path></clipPath></defs><g transform="translate(-1095.0 -1878.0)"><g clip-path="url(#i0)"><g transform="translate(0.0 947.0)"><g transform="translate(935.0 890.0)"><g transform="translate(160.0 41.0)"><g clip-path="url(#i1)"><polygon points="0,0 50,0 50,50.9566327 0,50.9566327 0,0" stroke="none" fill="#00205C"></polygon></g></g></g></g></g></g></svg>